<svg width="65" height="49" viewBox="0 0 65 49" fill="none" xmlns="http://www.w3.org/2000/svg">
<path fill-rule="evenodd" clip-rule="evenodd" d="M29.2893 0.711109C28.5775 -0.133508 27.3157 -0.241157 26.4711 0.470669L0.711127 22.1807C0.266101 22.5557 0.00652219 23.106 0.000121133 23.688C-0.00627802 24.2699 0.241134 24.8258 0.677802 25.2106L26.8378 48.2606C27.6666 48.9908 28.9304 48.9109 29.6606 48.0822C30.3908 47.2534 30.311 45.9896 29.4822 45.2594L5.0635 23.7437L29.0489 3.5293C29.8935 2.81747 30.0011 1.55573 29.2893 0.711109Z" fill="#00FFFF"/>
<path fill-rule="evenodd" clip-rule="evenodd" d="M64.45 23.7178C64.4432 22.6132 63.5423 21.7233 62.4378 21.73L3.44779 22.09C2.34325 22.0968 1.4533 22.9976 1.46004 24.1022C1.46678 25.2067 2.36766 26.0967 3.47221 26.0899L62.4622 25.7299C63.5668 25.7232 64.4567 24.8223 64.45 23.7178Z" fill="#00FFFF"/>
</svg>
