<svg width="65" height="49" viewBox="0 0 65 49" fill="none" xmlns="http://www.w3.org/2000/svg">
<path fill-rule="evenodd" clip-rule="evenodd" d="M35.1609 0.711109C35.8727 -0.133508 37.1344 -0.241157 37.9791 0.470669L63.7391 22.1807C64.1841 22.5557 64.4437 23.106 64.4501 23.688C64.4565 24.2699 64.2091 24.8258 63.7724 25.2106L37.6124 48.2606C36.7836 48.9908 35.5198 48.9109 34.7896 48.0822C34.0594 47.2534 34.1392 45.9896 34.968 45.2594L59.3867 23.7437L35.4013 3.5293C34.5567 2.81747 34.4491 1.55573 35.1609 0.711109Z" fill="#00FFFF"/>
<path fill-rule="evenodd" clip-rule="evenodd" d="M0.000228882 23.7178C0.00696969 22.6132 0.907849 21.7233 2.0124 21.73L61.0024 22.09C62.1069 22.0968 62.9969 22.9976 62.9902 24.1022C62.9834 25.2067 62.0825 26.0967 60.978 26.0899L1.98799 25.7299C0.883439 25.7232 -0.00651193 24.8223 0.000228882 23.7178Z" fill="#00FFFF"/>
</svg>
