<svg width="15" height="15" viewBox="0 0 15 15" fill="none" xmlns="http://www.w3.org/2000/svg">
<path fill-rule="evenodd" clip-rule="evenodd" d="M0.292893 0.292893C0.683417 -0.0976311 1.31658 -0.0976311 1.70711 0.292893L7.1831 5.76888L12.6591 0.292893C13.0496 -0.0976311 13.6828 -0.0976311 14.0733 0.292893C14.4638 0.683417 14.4638 1.31658 14.0733 1.70711L8.59731 7.1831L14.0728 12.6586C14.4633 13.0491 14.4633 13.6823 14.0728 14.0728C13.6823 14.4633 13.0491 14.4633 12.6586 14.0728L7.1831 8.59731L1.70759 14.0728C1.31706 14.4633 0.683898 14.4633 0.293374 14.0728C-0.0971502 13.6823 -0.0971502 13.0491 0.293374 12.6586L5.76888 7.1831L0.292893 1.70711C-0.0976311 1.31658 -0.0976311 0.683417 0.292893 0.292893Z" fill="white" fill-opacity="0.96"/>
</svg>
