<?xml version="1.0" encoding="UTF-8"?>
<svg id="_Слой_2" data-name="Слой 2" xmlns="http://www.w3.org/2000/svg" viewBox="0 0 166.5 137.04">
  <defs>
    <style>
      .cls-1 {
        fill: #fff;
      }

      .cls-2 {
        fill: none;
        stroke: #aa113d;
        stroke-miterlimit: 10;
        stroke-width: 9px;
      }
    </style>
  </defs>
  <g id="_Слой_1-2" data-name="Слой 1">
    <g>
      <g>
        <path class="cls-1" d="m33.04,130.52c-5.17,0-9.28-1.38-10.98-3.68-.8-1.09-1.01-2.3-.62-3.69l.44-.83c2.35-.03,7.91-.08,11.81-.11h0c1.3,0,2.46-.41,3.35-1.18.9-.78,1.41-1.87,1.41-2.98,0-.91-.35-1.85-1.08-2.57.29,0,.58,0,.86,0,3.29-.08,4.98-2.19,4.98-4.23,0-2.02-1.68-4.1-4.86-4.15l-8.58.06c2.88-6.76,10.6-24.29,14.71-31.58l-.35,42.18c.06,4.76,2.34,9.31,6.06,12.61l-17.15.15Z"/>
        <path class="cls-1" d="m42.41,83.99l-.18,22.14c-1.03-.62-2.32-1.01-3.84-1.04h-.04s-.04,0-.04,0l-5.47.04c2.4-5.53,6.26-14.25,9.59-21.14m-.27,32.45v1.3s-.01.04-.01.04v.04c.05,3.79,1.36,7.46,3.61,10.58l-12.44.11h-.26c-5.35,0-8.39-1.55-9.37-2.87-.24-.32-.45-.72-.41-1.35,2.76-.03,7.29-.07,10.42-.09,4.24,0,6.78-3.13,6.78-6.16,0-.29-.02-.58-.07-.87.65-.18,1.23-.43,1.75-.74m3.89-44.91c-.56,0-1.48.15-2.06,1.02-4.64,6.98-17.3,36.63-17.19,36.63l11.53-.07c3.85.06,3.89,4.28-.1,4.37,0,0-13.89.08-13.91.12,0,0-1.33,2.53-1.47,2.77l11.11-.1s.03,0,.04,0c3.62,0,3.02,3.94-.32,3.94,0,0-12.99.1-13.02.14l-1.08,2.04c-1.78,5.79,3.91,10.14,13.46,10.14.1,0,.2,0,.3,0l23.85-.21c-6.43-2.45-10.98-8.17-11.06-14.54l.38-46.21s-.19-.04-.48-.04h0Z"/>
      </g>
      <g>
        <path class="cls-1" d="m84.86,129.24c1.83-2.66,2.31-5.89,2.31-9.66l.96-47.84c.5.33.68.55.75.67v53.77c0,1.03-1.47,2.37-4.02,3.06Z"/>
        <path class="cls-1" d="m86.19,68.52l-1.02,51.06c0,6.14-1.4,9.64-6.39,12.14l2.64-.03c5.25-.06,9.45-2.51,9.45-5.51v-53.84c0-1.66-2.53-2.89-4.68-3.82h0Z"/>
      </g>
    </g>
    <g>
      <path class="cls-1" d="m2.01,118.24c3.53,0,11.01-.03,16.04-.03.63,0,1.18,0,1.66,0l-.04.08c-3.31.05-13.27.15-17.65.17v-.22Z"/>
      <path class="cls-1" d="m18.06,116.21c-6.78,0-18.04.04-18.04.04l-.02,4.21s.27,0,.76,0c3.75,0,20.09-.17,20.1-.2l2.22-4.02s-2.09-.03-5.02-.03h0Z"/>
    </g>
    <g>
      <path class="cls-1" d="m10.26,111.6v-.51h13.33l-.26.48c-1.07.02-3.24.03-7.63.03-2.05,0-4.04,0-5.44,0Z"/>
      <path class="cls-1" d="m26.79,109.09H8.32s-.06.07-.06.15v4.36s3.63.01,7.46.01c4.12,0,8.47-.01,8.82-.07l2.32-4.26c.01-.09-.02-.18-.06-.18h0Z"/>
    </g>
    <g>
      <path class="cls-1" d="m89.23,122.05l50.32-.09c6.05-.3,8.7-3.48,8.64-6.32-.06-2.81-2.81-5.87-8.71-5.93h-51.96v-6.57h53.65c4.08,0,7.43,1.34,9.67,3.87,1.99,2.24,3.09,5.37,3.09,8.79,0,6.8-4.47,14.02-12.76,14.02l-60.87.47,8.93-8.25Z"/>
      <path class="cls-1" d="m141.17,105.14c3.54,0,6.29,1.08,8.17,3.2,1.66,1.88,2.58,4.53,2.58,7.47,0,4.83-2.86,12.02-10.79,12.02l-55.68.43,4.56-4.21,49.54-.09h.1s.1,0,.1,0c7.29-.36,10.53-4.59,10.45-8.36-.07-3.75-3.45-7.81-10.73-7.89h-49.94v-2.57h51.65m0-4h-55.65v10.57h53.94c8.92.09,9.01,7.8.08,8.25l-51.1.09-13.3,12.29,66.03-.51c18.49,0,20.82-30.69,0-30.69h0Z"/>
    </g>
    <g>
      <path class="cls-1" d="m88.79,96.97v-7.01l55.51-.42c5.13-.19,7.85-3.25,7.83-6.04-.01-2.53-2.28-5.55-8.62-5.72l-54.72.34v-7.72h56.47c3.92,0,7.12,1.32,9.28,3.83,1.93,2.24,2.99,5.36,2.99,8.78,0,6.77-4.3,13.97-12.27,13.97h-56.47Z"/>
      <path class="cls-1" d="m145.26,72.38c3.36,0,5.98,1.05,7.76,3.14,1.61,1.88,2.5,4.53,2.5,7.48,0,4.81-2.73,11.97-10.27,11.97h-54.47v-3.03l53.52-.41h.06s.06,0,.06,0c5.55-.2,9.72-3.67,9.7-8.05-.02-3.43-2.79-7.5-10.57-7.71h-.07s-.07,0-.07,0l-52.64.32v-3.71h54.47m0-4h-58.47v11.73l56.67-.35c9.59.26,7.93,7.51.83,7.77l-57.49.44v11h58.47c17.88,0,20.14-30.59,0-30.59h0Z"/>
    </g>
    <path class="cls-2" d="m68.33,4.5h79.24c19.58,0,18.89,23.4,0,23.95h-64.9"/>
    <path class="cls-2" d="m83.7,38.87h63.3c16.41,0,17.02,21.72,0,22.22h-63.8"/>
    <path class="cls-2" d="m83.19,117.5c0,20.06-34.72,20.06-34.72,0V22.54c0-24.06,34.72-24.06,34.72,0v94.95Z"/>
  </g>
</svg>