<?xml version="1.0" encoding="UTF-8"?>
<svg id="_Слой_2" data-name="Слой 2" xmlns="http://www.w3.org/2000/svg" viewBox="0 0 164 117.23">
  <defs>
    <style>
      .cls-1 {
        fill: #fff;
      }

      .cls-2 {
        fill: #aa113d;
        stroke: #000;
        stroke-miterlimit: 10;
        stroke-width: 4px;
      }
    </style>
  </defs>
  <g id="_Слой_1-2" data-name="Слой 1">
    <g>
      <g>
        <path class="cls-1" d="m33.04,113.22c-6.45,0-10.04-1.81-11.24-3.5-.56-.79-.69-1.65-.39-2.63l.4-.66c2.31-.03,7.94-.07,11.88-.1,3.09,0,4.77-2.02,4.77-3.91,0-.7-.23-1.43-.72-2.04.17,0,.33,0,.5,0,3.44-.07,4.98-2.11,4.98-3.97,0-1.9-1.68-3.86-4.86-3.9l-8.21.05c3.59-6.52,12.44-22.17,16.34-27.71v36.42c.07,4.89,1.53,8.95,4.14,11.82l-17.57.14Z"/>
        <path class="cls-1" d="m44.47,71.66v22.01c-1.02-1.77-3.07-3.13-6.09-3.17h-.04s-.04,0-.04,0l-4.74.03c2.95-5.28,7.41-13.1,10.92-18.87m0,27.49v2.16c.06,3.74.85,7.04,2.31,9.79l-13.48.1h-.26c-5.3,0-8.7-1.37-9.61-2.65-.04-.05-.07-.1-.1-.15,2.77-.03,7.24-.06,10.34-.08,4.24,0,6.78-3.01,6.78-5.91,0-.11,0-.22-.01-.33,1.91-.5,3.26-1.6,4.02-2.93m3.29-37.13c-.72,0-1.8.14-2.35.88-4.64,6.17-18.73,31.67-18.62,31.67l11.53-.07c3.85.05,3.89,3.78-.1,3.87,0,0-13.89.07-13.91.1,0,0-1.33,2.23-1.47,2.45l11.11-.09s.03,0,.04,0c3.62,0,3.02,3.49-.32,3.49,0,0-12.99.09-13.02.12l-1.08,1.81c-1.78,5.12,3.91,8.96,13.46,8.96.1,0,.2,0,.3,0l23.85-.18c-6.43-2.17-8.64-8.15-8.72-13.77v-39.19s-.3-.05-.71-.05h0Z"/>
      </g>
      <g>
        <path class="cls-1" d="m82.19,112.46c2.31-1.79,3.77-4.22,3.77-8.25l.48-42.36c.79.21,1.87.5,2.44.76v47c0,.93-2.52,2.62-6.69,2.85Z"/>
        <path class="cls-1" d="m84.47,59.19l-.51,45.02c0,5.43-2.93,7.15-7.91,9.36l5.38.91c5.25-.05,9.45-2.22,9.45-4.88v-47.62c0-1.47-4.25-1.98-6.41-2.8h0Z"/>
      </g>
    </g>
    <g>
      <path class="cls-1" d="m0,104.54s20.85-.14,20.86-.17l2.22-3.56c.01-.06-23.06,0-23.06,0L0,104.54Z"/>
      <path class="cls-1" d="m18.06,100.79c-6.78,0-18.04.03-18.04.03l-.02,3.72s.27,0,.76,0c3.75,0,20.09-.15,20.1-.18l2.22-3.56s-2.09-.02-5.02-.02h0Z"/>
    </g>
    <g>
      <path class="cls-1" d="m8.26,94.63v3.85s15.62.04,16.28-.05l2.32-3.77c.01-.08-.02-.16-.06-.16H8.32s-.06.06-.06.13Z"/>
      <path class="cls-1" d="m26.79,94.5H8.32s-.06.06-.06.13v3.85s3.63.01,7.46.01c4.12,0,8.47-.01,8.81-.06l2.32-3.77c.01-.08-.02-.16-.06-.16h0Z"/>
    </g>
    <g>
      <path class="cls-1" d="m89.16,106.18l50.39-.08c6.06-.26,8.69-3.11,8.65-5.81-.05-2.69-2.76-5.43-8.71-5.48h-51.96v-5.35h53.65c4.13,0,7.5,1.19,9.75,3.43,1.94,1.93,3,4.61,3,7.53,0,5.9-4.47,12.17-12.76,12.17l-60.37.41,8.36-6.83Z"/>
      <path class="cls-1" d="m141.17,91.46c3.59,0,6.47.99,8.34,2.85,1.56,1.55,2.41,3.72,2.41,6.12,0,5.05-3.69,10.17-10.78,10.17l-54.69.37,3.42-2.79,49.68-.08h.08s.08,0,.08,0c7.32-.32,10.54-4.17,10.47-7.84-.06-3.66-3.4-7.38-10.73-7.45h-49.94v-1.35h51.65m0-4h-55.65v9.35h53.94c8.92.08,9.01,6.9.08,7.29l-51.1.08-13.3,10.87,66.03-.45c18.49,0,20.82-27.14,0-27.14h0Z"/>
    </g>
    <g>
      <path class="cls-1" d="m86.39,83.54l.14-5.81,55.55-.37c5.78-.1,9.8-2.47,9.82-5.76,0-2.34-2.19-4.89-8.39-5.04l-56.74.45v-6.51h58.5c3.96,0,7.2,1.17,9.36,3.4,1.87,1.93,2.9,4.6,2.9,7.53,0,5.88-4.3,12.13-12.27,12.13h-58.87Z"/>
      <path class="cls-1" d="m145.26,62.49c3.41,0,6.15.97,7.93,2.79,1.51,1.55,2.34,3.73,2.34,6.13,0,5.03-3.53,10.13-10.27,10.13h-56.82l.04-1.82,53.66-.36c8.06-.14,11.75-4.11,11.76-7.75,0-1.14-.48-6.81-10.35-7.05h-.06s-.06,0-.06,0l-54.66.43v-2.5h56.5m0-4h-60.5v10.53l58.69-.46c9.59.23,7.93,6.64-1.39,6.8l-57.49.39-.24,9.8h60.92c17.88,0,20.14-27.05,0-27.05h0Z"/>
    </g>
    <path class="cls-2" d="m68.33,2h79.24c19.58,0,18.89,24.79,0,25.36h-64.9"/>
    <path class="cls-2" d="m83.7,32.4h63.3c16.41,0,17.02,22.19,0,22.71h-63.8"/>
    <path class="cls-2" d="m83.19,101.93c0,17.74-34.72,17.74-34.72,0V17.96c0-21.28,34.72-21.28,34.72,0v83.97Z"/>
  </g>
</svg>