<?xml version="1.0" encoding="UTF-8"?>
<svg id="_Слой_2" data-name="Слой 2" xmlns="http://www.w3.org/2000/svg" viewBox="0 0 8.47 17.26">
  <defs>
    <style>
      .cls-1 {
        fill: #fff;
      }
    </style>
  </defs>
  <g id="Header">
    <path class="cls-1" d="m1.85,12.93c0-1.32,0-2.64,0-3.95,0-.32-.04-.38-.35-.38-.39,0-.77,0-1.16.02-.31,0-.34-.03-.34-.35,0-.74,0-1.47,0-2.21,0-.31,0-.31.31-.31.4,0,.79,0,1.19,0,.31,0,.36-.05.36-.37,0-.75-.02-1.51,0-2.26.03-.93.33-1.75,1.07-2.33C3.5.33,4.17.09,4.88.06,6,.01,7.13.02,8.25,0c.17,0,.22.07.22.23,0,.83,0,1.65,0,2.48,0,.19-.07.26-.25.26-.55,0-1.11,0-1.66,0-.64,0-.94.31-.95.98,0,.47-.02.93-.02,1.4,0,.33.04.37.35.37.74,0,1.47,0,2.21,0,.3,0,.33.05.29.37-.09.74-.18,1.47-.26,2.21-.03.27-.05.3-.33.3-.6,0-1.2,0-1.8,0-.42,0-.47.04-.46.47,0,1.6.02,3.19.02,4.79,0,1.01,0,2.01,0,3.02,0,.35-.05.4-.38.4-1.01,0-2.02,0-3.04,0-.3,0-.34-.05-.34-.35,0-1.33,0-2.65,0-3.98h0Z"/>
  </g>
</svg>