<?xml version="1.0" encoding="UTF-8"?>
<svg id="_Слой_2" data-name="Слой 2" xmlns="http://www.w3.org/2000/svg" viewBox="0 0 16.83 13.18">
  <defs>
    <style>
      .cls-1 {
        fill: #fff;
      }
    </style>
  </defs>
  <g id="Header">
    <path class="cls-1" d="m8.53,1.87c.06-.1.11-.21.17-.3.09-.13.18-.25.27-.37.06-.08.13-.14.2-.21.12-.13.25-.23.39-.32.23-.16.47-.29.72-.4.24-.1.49-.15.74-.22.13-.03.27-.03.4-.04.18,0,.37-.01.55,0,.22.02.43.07.65.12.13.03.26.08.39.13.24.09.47.21.68.37.16.12.3.25.45.38.02.01.04.03.05.03.17-.04.33-.07.49-.11.19-.05.38-.11.57-.18.23-.09.45-.18.67-.28.14-.06.27-.14.4-.2.01,0,.03,0,.05-.01-.28.8-.77,1.37-1.44,1.79.03.01.05.02.07.02.34-.05.68-.11,1.01-.22.15-.05.29-.09.44-.14.07-.02.13-.06.2-.09.05-.02.11-.03.18-.05-.02.04-.03.07-.05.09-.14.18-.29.35-.43.53-.07.08-.13.17-.21.24-.12.12-.25.23-.37.34-.11.09-.21.19-.32.28-.09.07-.19.14-.28.21-.02.01-.03.05-.03.08,0,.17.01.34,0,.52,0,.27-.02.53-.06.79-.03.19-.04.38-.07.57-.03.17-.08.34-.12.51-.01.07-.02.14-.04.2-.05.19-.11.38-.17.57-.04.14-.09.28-.14.41-.02.06-.05.11-.07.17-.06.2-.16.37-.24.56-.06.15-.13.29-.21.42-.14.24-.28.48-.43.72-.08.13-.15.25-.24.37-.12.16-.24.31-.36.47-.11.14-.23.29-.35.42-.1.11-.2.21-.3.31-.06.07-.13.13-.19.19-.13.12-.26.24-.4.35-.12.1-.23.2-.35.29-.1.08-.21.16-.32.24-.15.1-.3.21-.46.3-.14.09-.29.18-.44.26-.22.12-.44.23-.67.33-.16.08-.34.13-.5.2-.06.03-.12.06-.19.08-.33.1-.67.21-1,.3-.21.06-.42.09-.63.12-.23.04-.46.08-.69.11-.14.02-.28.02-.42.03-.11,0-.22.02-.33.03-.05,0-.11,0-.16,0-.22,0-.43,0-.65,0-.06,0-.12,0-.17.01-.02-.02-.05,0-.07-.02-.12,0-.23,0-.35,0-.14-.01-.27-.03-.41-.05-.12-.02-.24-.03-.36-.05-.17-.03-.33-.06-.5-.1-.13-.03-.27-.05-.4-.08-.12-.03-.25-.07-.37-.11-.24-.08-.47-.15-.7-.24-.25-.1-.49-.21-.74-.33-.24-.12-.48-.24-.72-.37-.06-.03-.11-.07-.16-.11,0-.01,0-.02,0-.03.27.01.53.03.8.04.16,0,.32,0,.48-.01.18-.02.36-.06.53-.07.34-.02.67-.12,1-.2.22-.06.43-.14.64-.23.21-.09.43-.19.63-.29.19-.1.37-.2.55-.31.14-.08.27-.18.4-.27t-.07-.03c-.38-.01-.75-.1-1.1-.23-.33-.12-.63-.29-.91-.52-.22-.17-.42-.36-.59-.6-.11-.15-.21-.32-.31-.48,0-.02-.02-.04-.04-.05-.01-.03-.03-.07-.04-.1-.01-.06-.05-.11-.08-.17,0-.04-.02-.08-.03-.14.2.01.39.03.59.03.2,0,.39-.02.59-.03,0,0,.02-.01.03-.01l.31-.06s0,0,0,0c-.11-.03-.21-.05-.32-.08-.12-.04-.24-.08-.36-.13-.16-.07-.32-.14-.46-.23-.15-.1-.3-.22-.44-.33-.04-.03-.08-.06-.11-.09-.11-.12-.23-.23-.34-.35-.06-.06-.1-.14-.15-.21-.05-.08-.1-.15-.15-.23-.04-.07-.08-.15-.12-.23-.09-.22-.19-.44-.23-.67-.03-.15-.05-.3-.07-.45-.01-.09,0-.19,0-.29.49.26,1,.39,1.53.41-.13-.11-.25-.21-.38-.31-.04-.04-.09-.07-.13-.11-.05-.04-.09-.09-.13-.13-.07-.08-.14-.16-.21-.25-.08-.12-.17-.25-.24-.38-.08-.15-.16-.31-.22-.47-.06-.15-.1-.31-.14-.46-.02-.09-.02-.19-.03-.28,0-.04-.01-.09-.02-.13,0-.16,0-.31,0-.47,0-.09.01-.18.03-.26.02-.1.04-.19.06-.29,0-.04.02-.07.03-.11.05-.19.12-.36.21-.53.04-.08.08-.16.13-.25.16.16.28.34.44.47.06.06.1.12.16.17.13.13.26.25.39.37.05.04.1.07.18.13.06.09.16.17.29.23.01.05.05.08.11.09,0,0,.02,0,.02,0,.14.17.33.27.51.39.15.1.3.19.45.29.09.05.18.1.26.14.02,0,.04,0,.05,0,.04.03.07.06.1.07.21.1.42.2.64.3.04.02.09.04.15.06.05.03.12.06.19.09.09.04.18.06.27.09.24.08.47.16.72.23.21.06.42.1.62.15.1.02.2.05.3.06.16.03.31.05.47.08.03,0,.06,0,.1-.02.08.04.51.1.74.09,0-.04-.01-.09-.02-.13-.02-.12-.05-.23-.06-.35,0-.13,0-.27,0-.4,0-.12,0-.24.02-.36.01-.09.04-.18.06-.27.04-.2.12-.39.2-.57.01-.03.02-.06.04-.1.02,0,.01-.03.03-.04Z"/>
  </g>
</svg>