<?xml version="1.0" encoding="UTF-8"?>
<svg id="_Слой_2" data-name="Слой 2" xmlns="http://www.w3.org/2000/svg" viewBox="0 0 15.68 14.99">
  <defs>
    <style>
      .cls-1 {
        fill: #fff;
      }
    </style>
  </defs>
  <g id="Header">
    <g>
      <path class="cls-1" d="m15.68,3.84v7.32c-.03.15-.04.31-.08.46-.4,1.7-1.47,2.79-3.23,3.25-.23.06-.47.08-.7.12h-7.65s-.1-.02-.15-.03c-.43-.05-.85-.14-1.24-.31C.95,13.89.04,12.62.02,10.83c-.03-2.22,0-4.45,0-6.67,0-.72.17-1.41.55-2.03C1.42.73,2.72.02,4.42,0c2.29-.01,4.57,0,6.86,0,.29,0,.6.02.88.08,1.77.37,2.91,1.41,3.4,3.08.06.22.09.45.13.67Zm-7.83,9.82c1.13,0,2.26,0,3.4,0,.45,0,.9-.06,1.31-.25,1.15-.54,1.73-1.42,1.73-2.64,0-2.18,0-4.37,0-6.55,0-.33-.05-.67-.16-.97-.42-1.19-1.5-1.91-2.85-1.91-2.28,0-4.57,0-6.85,0-.34,0-.7.05-1.02.15-1.25.4-2,1.44-2,2.72,0,2.19,0,4.38,0,6.57,0,.98.41,1.78,1.24,2.36.53.37,1.14.52,1.8.52,1.14,0,2.27,0,3.41,0Z"/>
      <path class="cls-1" d="m11.88,7.5c0,2.13-1.84,3.87-4.05,3.86-2.23-.01-4.05-1.76-4.03-3.87.02-2.13,1.83-3.85,4.04-3.85,2.22,0,4.04,1.75,4.04,3.87Zm-1.39,0c0-1.39-1.18-2.53-2.64-2.53-1.46,0-2.64,1.13-2.65,2.53,0,1.39,1.18,2.53,2.64,2.53,1.46,0,2.64-1.13,2.65-2.53Z"/>
      <path class="cls-1" d="m12.05,2.51c.56,0,1.03.44,1.02.98,0,.53-.46.97-1.02.97-.56,0-1.03-.45-1.02-.98,0-.53.46-.96,1.02-.97Z"/>
    </g>
  </g>
</svg>