<?xml version="1.0" encoding="UTF-8"?>
<svg id="_Слой_2" data-name="Слой 2" xmlns="http://www.w3.org/2000/svg" viewBox="0 0 564.93 187.22">
  <defs>
    <style>
      .cls-1, .cls-2 {
        fill: #fff;
      }

      .cls-2 {
        stroke: #fff;
        stroke-miterlimit: 10;
      }
    </style>
  </defs>
  <g id="Main">
    <path class="cls-1" d="m360.04,153.19h-60.31v-11.29h64.42c5.12,0,9.25,1.3,12.41,3.89,3.15,2.6,4.73,6,4.73,10.22v31.04h-69.08c-14.35,0-26.04-3.57-35.09-10.72-9.05-7.15-13.57-16.55-13.57-28.22v-1.13c0-11.66,4.52-21.07,13.57-28.22,9.04-7.15,20.74-10.72,35.09-10.72h69.08v11.18h-69.08c-10.42,0-18.87,2.54-25.36,7.62-6.49,5.08-9.73,11.8-9.73,20.15v1.13c0,8.35,3.24,15.07,9.73,20.15,6.48,5.08,14.94,7.62,25.36,7.62h55.37v-16.48c0-1.88-.69-3.39-2.05-4.51-1.37-1.13-3.2-1.69-5.48-1.69Z"/>
    <path class="cls-1" d="m250.46,187.22l-25.52-65.98c-1.5-4.01-4.17-7.24-8.01-9.69-3.84-2.46-8.09-3.68-12.76-3.68h-25.15c-4.67,0-8.93,1.23-12.76,3.68-3.84,2.46-6.51,5.69-8.01,9.69l-25.53,65.98h13.01l23.15-59.98c.92-2.42,2.52-4.37,4.82-5.84,2.29-1.47,4.86-2.21,7.69-2.21h20.39c2.83,0,5.4.74,7.69,2.21,2.29,1.47,3.9,3.42,4.82,5.84l5.77,14.95h-35.02v11.17h39.25v-.21l13.15,34.08h13.01Z"/>
    <path class="cls-1" d="m39.75,141.89l-.06,11.24,39.3.02c9.55,0,16.23.19,20.11,2,3.88,1.81,5.24,4.87,5.24,8.64v1.58c0,3.61-1.99,6.38-5.96,8.3-3.97,1.92-9.69,2.88-17.16,2.88H22.49c-2.37,0-4.26-.56-5.67-1.69-1.42-1.13-2.13-2.63-2.13-4.52v-45.6c0-1.88.71-3.39,2.13-4.51,1.42-1.13,3.31-1.69,5.67-1.69h55.89c8.7,0,14.73.85,18.08,2.54,3.36,1.69,5.73,4.58,5.04,8.52-.35,2.02-2.77,6.9-2.77,6.9,0,0,6.32,2.19,12.38,4.37,1.31-2.63,3.56-8.09,4.01-11.29.36-2.54-.16-5.04-1.01-7.26-.85-2.22-2.41-4.48-4.68-6.77-2.27-2.29-5.79-4.12-10.57-5.47-4.78-1.35-10.62-2.03-17.52-2.03H18.23c-5.3,0-9.58,1.3-12.84,3.9-3.26,2.6-4.89,6-4.89,10.21v50.8c0,4.22,1.63,7.62,4.89,10.22,3.26,2.6,7.54,3.89,12.84,3.89h65.96c22.7,0,34.04-7.19,34.04-21.56v-1.69c0-14.29-11.94-21.71-26.17-21.83,0,0-47.63-.11-52.32-.08Z"/>
    <path class="cls-2" d="m501.77,76.7V14.24c0-4.05,1.58-7.33,4.75-9.83,3.17-2.5,7.32-3.75,12.46-3.75h45.45v10.86h-41.32c-2.3,0-4.13.54-5.51,1.63s-2.06,2.54-2.06,4.35v59.2h-13.77Z"/>
    <path class="cls-2" d="m457.58,11.81c-7.92,0-7.92-10.98,0-11.15h36.49c0,.17,0,10.75,0,11.01l-36.49.13Z"/>
    <path class="cls-2" d="m314.37,76.53V.5h13.27v32.59h86.26V.5h13.27v76.03h-13.27v-32.58h-86.26v32.58h-13.27Z"/>
    <path class="cls-2" d="m267.29,44.09h-57.78v-10.81h61.71c4.9,0,8.86,1.24,11.89,3.73,3.02,2.49,4.53,5.75,4.53,9.79v29.74h-66.18c-13.74,0-24.95-3.42-33.61-10.27-8.67-6.85-13-15.86-13-27.04v-1.08c0-11.17,4.33-20.19,13-27.04,8.66-6.85,19.87-10.27,33.61-10.27h66.18v10.71h-66.18c-9.98,0-18.08,2.43-24.29,7.3-6.22,4.87-9.32,11.3-9.32,19.3v1.08c0,8,3.11,14.44,9.32,19.3,6.21,4.87,14.31,7.3,24.29,7.3h53.05v-15.79c0-1.8-.66-3.24-1.97-4.33-1.32-1.08-3.07-1.62-5.25-1.62Z"/>
    <path class="cls-2" d="m137.4,76.53V.83h12.81v75.7h-12.81Z"/>
    <path class="cls-2" d="m13.72,50.04v26.5H.53v-29.74c0-4.04,1.52-7.3,4.55-9.79,3.04-2.49,7.01-3.73,11.94-3.73h83.77v10.81H20.98c-2.2,0-3.96.54-5.28,1.62s-1.98,2.52-1.98,4.33Z"/>
    <path class="cls-2" d="m25.57.87h0s-8.58,0-8.58,0c-4.93,0-8.9,1.24-11.94,3.73C2.02,7.09.5,10.35.5,14.39v12.4h12.99l.2-9.16c0-1.8.66-3.24,1.98-4.33,1.32-1.08,3.08-1.62,5.28-1.62h79.81s12.53,0,12.53,0V.87H25.57Z"/>
  </g>
</svg>