<?xml version="1.0" encoding="UTF-8"?>
<svg id="_Слой_2" data-name="Слой 2" xmlns="http://www.w3.org/2000/svg" xmlns:xlink="http://www.w3.org/1999/xlink" viewBox="0 0 142.56 136.22">
  <defs>
    <style>
      .cls-1 {
        fill: url(#_Безымянный_градиент_7);
      }

      .cls-2 {
        fill: url(#_Безымянный_градиент_40-2);
      }

      .cls-3 {
        fill: url(#_Безымянный_градиент_40);
      }

      .cls-4 {
        fill: #fff;
      }

      .cls-5 {
        fill: url(#_Безымянный_градиент_84);
      }

      .cls-6 {
        fill: url(#_Безымянный_градиент_38);
      }

      .cls-7 {
        fill: url(#_Безымянный_градиент_41);
      }

      .cls-8 {
        fill: url(#_Безымянный_градиент_49);
      }

      .cls-9 {
        fill: #e5072d;
      }
    </style>
    <linearGradient id="_Безымянный_градиент_41" data-name="Безымянный градиент 41" x1="64.02" y1="54.38" x2="66.95" y2="155.71" gradientUnits="userSpaceOnUse">
      <stop offset="0" stop-color="#fff"/>
      <stop offset=".54" stop-color="#fff"/>
      <stop offset="1" stop-color="#000"/>
    </linearGradient>
    <linearGradient id="_Безымянный_градиент_7" data-name="Безымянный градиент 7" x1="95.62" y1="43.52" x2="96.29" y2="116.99" gradientUnits="userSpaceOnUse">
      <stop offset=".2" stop-color="#fff"/>
      <stop offset="1" stop-color="#000"/>
    </linearGradient>
    <linearGradient id="_Безымянный_градиент_49" data-name="Безымянный градиент 49" x1="22.57" y1="69.87" x2="64.86" y2="131.76" gradientUnits="userSpaceOnUse">
      <stop offset=".1" stop-color="#000"/>
      <stop offset=".47" stop-color="#f3f3f3"/>
      <stop offset="1" stop-color="#000"/>
    </linearGradient>
    <linearGradient id="_Безымянный_градиент_40" data-name="Безымянный градиент 40" x1="96.29" y1="62.89" x2="72.09" y2="-10.32" gradientUnits="userSpaceOnUse">
      <stop offset="0" stop-color="#000"/>
      <stop offset=".08" stop-color="#210106"/>
      <stop offset=".2" stop-color="#540310"/>
      <stop offset=".34" stop-color="#800518"/>
      <stop offset=".47" stop-color="#a4071f"/>
      <stop offset=".6" stop-color="#c00825"/>
      <stop offset=".73" stop-color="#d40928"/>
      <stop offset=".87" stop-color="#e0092b"/>
      <stop offset="1" stop-color="#e40a2c"/>
    </linearGradient>
    <linearGradient id="_Безымянный_градиент_84" data-name="Безымянный градиент 84" x1="84.24" y1="132.46" x2="58.45" y2="-46.42" gradientUnits="userSpaceOnUse">
      <stop offset="0" stop-color="#b80a23"/>
      <stop offset="0" stop-color="#af0921"/>
      <stop offset=".03" stop-color="#7f0618"/>
      <stop offset=".06" stop-color="#570410"/>
      <stop offset=".08" stop-color="#38030a"/>
      <stop offset=".11" stop-color="#220106"/>
      <stop offset=".14" stop-color="#150103"/>
      <stop offset=".16" stop-color="#110103"/>
      <stop offset=".17" stop-color="#1c0105"/>
      <stop offset=".25" stop-color="#4b030e"/>
      <stop offset=".33" stop-color="#740516"/>
      <stop offset=".42" stop-color="#96061c"/>
      <stop offset=".5" stop-color="#b20722"/>
      <stop offset=".6" stop-color="#c80826"/>
      <stop offset=".7" stop-color="#d80929"/>
      <stop offset=".83" stop-color="#e1092b"/>
      <stop offset="1" stop-color="#e40a2c"/>
    </linearGradient>
    <linearGradient id="_Безымянный_градиент_38" data-name="Безымянный градиент 38" x1="106.11" y1="85.87" x2="95.21" y2="10.27" gradientUnits="userSpaceOnUse">
      <stop offset="0" stop-color="#000"/>
      <stop offset=".06" stop-color="#190104"/>
      <stop offset=".2" stop-color="#4e030f"/>
      <stop offset=".33" stop-color="#7c0518"/>
      <stop offset=".47" stop-color="#a1071f"/>
      <stop offset=".61" stop-color="#be0824"/>
      <stop offset=".74" stop-color="#d30928"/>
      <stop offset=".87" stop-color="#df092b"/>
      <stop offset="1" stop-color="#e40a2c"/>
    </linearGradient>
    <linearGradient id="_Безымянный_градиент_40-2" data-name="Безымянный градиент 40" x1="28.89" y1="111.63" x2="10.38" y2="24.27" xlink:href="#_Безымянный_градиент_40"/>
  </defs>
  <g id="_Слой_1-2" data-name="Слой 1">
    <g>
      <path class="cls-7" d="m131.21,112.11c-.28-1.39-.71-2.73-1.26-4-.62-1.43-1.41-2.77-2.34-4h0c-.67-.89-1.41-1.71-2.21-2.48.02,0,.03-.02.05-.03-3.27-3.08-7.33-4.98-11.82-5.49h-1.4c-.09,0-.18,0-.27,0h0s-35.71,0-35.71,0c-1.37,0-2.71.14-4,.4-1.39.28-2.73.71-4,1.26-.69.3-1.36.64-2,1.01-.69.4-1.36.84-2,1.32h0s0,0,0,0c-.55.42-1.09.86-1.6,1.33-.88.81-1.68,1.71-2.4,2.67h0s0,0,0,0c-2.95,3.45-3.94,8.11-4.05,12.01,0,0-.07,1.31.43,3.97.31,1.65.77,2.81,1.29,4.03,2.44-.31,4.38-2.01,4.84-2.8.79-1.35,1.31-2.34,1.41-5.21.12-3.81,1.49-5.69,2.03-6.5.32-.48.73-1.08,1.11-1.51.3-.33.61-.65.94-.94.26-.23.52-.45.8-.66.96-.72,2.04-1.31,3.2-1.72.13-.05.27-.09.4-.13,1.14-.36,2.35-.55,3.6-.55l35.71.03h.15c1.22.05,2.39.27,3.49.66,1.49.53,2.85,1.34,4,2.37.33.3.65.61.94.94,1.03,1.15,1.85,2.51,2.37,4,.44,1.25.68,2.6.68,4s-.24,2.75-.68,4c-.53,1.49-1.34,2.85-2.37,4-.3.33-.61.65-.94.94-1.15,1.03-2.51,1.85-4,2.37-1.25.44-2.6.68-4,.68h-4.39s0,0,0,0h0s-14.63,0-14.63,0h0s0,0,0,0h-32.06l-33.27.07h-7.19c-1.25,0-2.46-.19-3.6-.55-.13-.04-.27-.09-.4-.13-1.16-.41-2.24-.99-3.2-1.72-.28-.21-.54-.43-.8-.66-.33-.3-.65-.61-.94-.94-.38-.43-.79-1.02-1.11-1.51-.54-.81-2.06-2.69-2.03-6.5.03-4-1.97-7.5-6.25-8-.52,1.22-.98,2.38-1.29,4.03C-.07,114.87,0,116.19,0,116.19c.11,3.9,1.11,8.56,4.05,12.01h0c.72.96,1.53,1.85,2.4,2.67.51.47,1.04.92,1.6,1.33h0c.64.48,1.31.92,2,1.32.64.37,1.31.71,2,1.01,1.27.55,2.61.98,4,1.26,1.29.26,2.63.4,4,.4h7.24s0,.02,0,.02l33.22-.1h51.31c1.29-.02,2.55-.15,3.77-.4,1.39-.28,2.73-.71,4-1.26,1.43-.62,2.77-1.41,4-2.34h0s0,0,0,0c1.51-1.14,2.86-2.48,4-4h0s0,0,0,0c.92-1.23,1.71-2.57,2.34-4,.56-1.27.98-2.61,1.26-4,.26-1.29.4-2.63.4-4s-.14-2.71-.4-4Z"/>
      <path class="cls-1" d="m56.19,72.08c1.14-1.51,2.61-3.16,5.05-4.88,3.22-2.26,6.65-3.13,6.65-3.13h47.64s0,0,0,0h2.38c6.65.43,11.49,5.4,11.45,5.42.85.79,1.62,1.66,2.32,2.59h0s0,0,0,0c.92,1.23,1.71,2.57,2.34,4,.55,1.27.98,2.61,1.26,4,.26,1.29.4,2.63.4,4s-.14,2.71-.4,4c-.28,1.39-.71,2.73-1.26,4-.62,1.43-1.41,2.77-2.34,4h0c-1.14,1.52-2.49,2.86-4,4h0c-.73.55-1.49,1.04-2.29,1.48-3.27-3.08-7.33-4.98-11.82-5.49h2.1c1.4,0,2.75-.24,4-.68,1.49-.53,2.85-1.34,4-2.37.33-.3.65-.61.94-.94,1.03-1.15,1.85-2.51,2.37-4,.44-1.25.68-2.6.68-4s-.24-2.75-.68-4c-.53-1.49-1.34-2.85-2.37-4-.3-.33-.61-.65-.94-.94-1.15-1.03-2.51-1.85-4-2.37-1.25-.44-2.6-.68-4-.68h-37.49"/>
      <path class="cls-4" d="m119.59,114.09c-.18-.71-.46-1.38-.82-2-.27-.46-.58-.89-.93-1.29-.22-.25-.46-.49-.71-.71-.4-.35-.83-.66-1.29-.93-.62-.36-1.29-.64-2-.82-.64-.16-1.31-.25-2-.25h-34.39s-1.17,0-1.17,0c-.69,0-1.36.09-2,.25-.71.18-1.38.46-2,.82-.46.27-.89.58-1.29.93-.25.22-.49.46-.71.71-.35.4-.66.83-.93,1.29-.36.62-.64,1.29-.82,2-.16.64-.25,1.31-.25,2s.09,1.36.25,2c.03.13.07.26.11.38l1.79-1.03c-.1-.43-.15-.89-.15-1.35,0-.7.12-1.37.34-2,.26-.75.67-1.42,1.19-2,.15-.17.31-.32.47-.47.58-.52,1.25-.92,2-1.19.63-.22,1.3-.34,2-.34h4.23s13.07,0,13.07,0h18.27c.7,0,1.37.12,2,.34.75.26,1.42.67,2,1.19.17.15.32.31.47.47.52.58.92,1.25,1.19,2,.22.63.34,1.3.34,2s-.12,1.37-.34,2c-.26.75-.67,1.42-1.19,2-.15.17-.31.32-.47.47-.58.52-1.25.92-2,1.19-.63.22-1.3.34-2,.34l-42.18.04c-.17.02-1.8,1-3.48,1.97h45.66c.69,0,1.36-.1,2-.26.71-.18,1.38-.46,2-.82.46-.27.89-.58,1.29-.93.25-.22.49-.46.71-.71.35-.4.66-.83.93-1.29.36-.62.64-1.29.82-2,.16-.64.25-1.31.25-2s-.09-1.36-.25-2Z"/>
      <path class="cls-8" d="m48.96,74.18s-.97,9.17-1.65,15.03c0,0-.38,2.98-.57,3.97-.77,3.97-1.81,6.87-5.27,10.87-2.16,2.49-10.63,7.71-16.55,7.96l2.62,1.51c5.85-1.31,10.88-3.93,14.3-6.95,2.96-2.61,5.37-6.12,6.75-12.37.87-3.93,2.53-21.26,2.53-21.26l-2.16,1.24Z"/>
      <path class="cls-4" d="m122.97,82.1c-.18-.71-.46-1.38-.82-2-.27-.46-.58-.89-.93-1.29-.22-.25-.46-.49-.71-.71-.4-.35-.83-.66-1.29-.93-.62-.36-1.29-.64-2-.82-.64-.16-1.31-.25-2-.25h-34.39s-1.17,0-1.17,0c-.69,0-1.36.09-2,.25-.71.18-1.38.46-2,.82-.46.27-.89.58-1.29.93-.25.22-.49.46-.71.71-.35.4-.66.83-.93,1.29-.36.62-.64,1.29-.82,2-.16.64-.25,1.31-.25,2s.09,1.36.25,2c.03.13.07.26.11.38l1.79-1.03c-.1-.43-.15-.89-.15-1.35,0-.7.12-1.37.34-2,.26-.75.67-1.42,1.19-2,.15-.17.31-.32.47-.47.58-.52,1.25-.92,2-1.19.63-.22,1.3-.34,2-.34h4.23s13.07,0,13.07,0h18.27c.7,0,1.37.12,2,.34.75.26,1.42.67,2,1.19.17.15.32.31.47.47.52.58.92,1.25,1.19,2,.22.63.34,1.3.34,2s-.12,1.37-.34,2c-.26.75-.67,1.42-1.19,2-.15.17-.31.32-.47.47-.58.52-1.25.92-2,1.19-.63.22-1.3.34-2,.34h-39.51s0,.02,0,.02c-7.18.19-12.88,2.62-17.26,7l-.4,3.36c5.21-5.61,11.17-8.3,17.8-8.37h0s39.37,0,39.37,0c.69,0,1.36-.09,2-.25.71-.18,1.38-.46,2-.82.46-.27.89-.58,1.29-.93.25-.22.49-.46.71-.71.35-.4.66-.83.93-1.29.36-.62.64-1.29.82-2,.16-.64.25-1.31.25-2s-.09-1.36-.25-2Z"/>
      <path class="cls-4" d="m36.82,122.16h-17.33c-.67,0-1.3-.12-1.9-.34-.71-.26-1.35-.67-1.9-1.19-.16-.15-.31-.31-.45-.47-.49-.58-.88-1.25-1.13-2-.21-.63-.39-2-.14-3.17l-1.73-1.02c-.48,1.71-.28,3.55-.12,4.19.17.71.44,1.38.78,2,.25.46.55.89.88,1.29.21.25.44.49.67.71.38.35.79.66,1.22.93.59.36,1.22.64,1.9.82.61.16,1.24.25,1.9.25h29.51l3.15-2h-15.33Z"/>
      <path class="cls-9" d="m126.5,50.16c-.18-.71-.46-1.38-.82-2-.27-.46-.58-.89-.93-1.29-.22-.25-.46-.49-.71-.71-.4-.35-.83-.66-1.29-.93-.62-.36-1.29-.64-2-.82-.64-.16-1.31-.25-2-.25h-34.39s-1.17,0-1.17,0c-.69,0-1.36.09-2,.25-.71.18-1.38.46-2,.82-.46.27-.89.58-1.29.93-.25.22-.49.46-.71.71-.35.4-.66.83-.93,1.29-.36.62-.64,1.29-.82,2-.16.64-.25,1.31-.25,2s.09,1.36.25,2c.03.13.07.26.11.38l1.79-1.03c-.1-.43-.15-.89-.15-1.35,0-.7.12-1.37.34-2,.26-.75.67-1.42,1.19-2,.15-.17.31-.32.47-.47.58-.52,1.25-.92,2-1.19.63-.22,1.3-.34,2-.34h4.23s13.07,0,13.07,0h18.27c.7,0,1.37.12,2,.34.75.26,1.42.67,2,1.19.17.15.32.31.47.47.52.58.92,1.25,1.19,2,.22.63.34,1.3.34,2s-.12,1.37-.34,2c-.26.75-.67,1.42-1.19,2-.15.17-.31.32-.47.47-.58.52-1.25.92-2,1.19-.63.22-1.3.34-2,.34l-42.18.04c-.17.02-1.8,1-3.48,1.97h45.66c.69,0,1.36-.1,2-.26.71-.18,1.38-.46,2-.82.46-.27.89-.58,1.29-.93.25-.22.49-.46.71-.71.35-.4.66-.83.93-1.29.36-.62.64-1.29.82-2,.16-.64.25-1.31.25-2s-.09-1.36-.25-2Z"/>
      <path class="cls-3" d="m130.47,18.04c-.18-.71-.46-1.38-.82-2-.27-.46-.58-.89-.93-1.29-.22-.25-.46-.49-.71-.71-.4-.35-.83-.66-1.29-.93-.62-.36-1.29-.64-2-.82-.64-.16-1.31-.25-2-.25h-59.47c-.69,0-1.36.09-2,.25-.71.18-1.38.46-2,.82-.46.27-.89.58-1.29.93-.02.01-.03.03-.05.04-.23.21-.45.43-.66.67-.35.4-.66.83-.93,1.29-.36.62-.64,1.29-.82,2-.16.64-.36,2-.36,2l-.51,4-.11.87-.14,1.13-.23,1.82-.02.19-.25,2-.25,2-4.15,37.42,2.27-1.32,3.9-36.11.25-2,.06-.48.19-1.52.11-.86.14-1.14.2-1.57.06-.43.25-2,.25-2s.22-1.37.44-2c.26-.75.67-1.42,1.19-2,.15-.17.31-.32.47-.47.58-.52,1.25-.92,2-1.19.63-.22,1.3-.34,2-.34h28.89s7.78,0,7.78,0h0s4.53,0,4.53,0h18.27c.7,0,1.37.12,2,.34.75.26,1.42.67,2,1.19.17.15.32.31.47.47.52.58.92,1.25,1.19,2,.22.63.34,1.3.34,2s-.12,1.37-.34,2c-.26.75-.67,1.42-1.19,2-.15.17-.31.32-.47.47-.58.52-1.25.92-2,1.19-.63.22-1.3.34-2,.34h-39.51s0,.02,0,.02c-7.18.19-12.88,2.62-17.26,7l-.4,3.36c5.21-5.61,11.17-8.3,17.8-8.37h0s39.37,0,39.37,0c.69,0,1.36-.09,2-.25.71-.18,1.38-.46,2-.82.46-.27.89-.58,1.29-.93.25-.22.49-.46.71-.71.35-.4.66-.83.93-1.29.36-.62.64-1.29.82-2,.16-.64.25-1.31.25-2s-.09-1.36-.25-2Z"/>
      <path class="cls-5" d="m142.16,16c-.28-1.39-.71-2.73-1.26-4-.62-1.43-1.41-2.77-2.34-4h0c-1.14-1.52-2.49-2.86-4-4h0c-1.23-.93-2.57-1.71-4-2.34-1.27-.56-2.61-.98-4-1.26-1.29-.26-2.63-.4-4-.4,0,0-59.98.04-60.34.05-.99.05-1.97.18-2.92.37-1.39.28-2.73.71-4,1.26-.51.22-1.01.47-1.49.73-.17.09-.34.19-.51.28-.69.4-1.36.84-2,1.32h0s0,0,0,0c-.56.42-1.09.86-1.6,1.33-.88.81-1.68,1.71-2.4,2.67h0s0,0,0,0c-.14.18-.27.36-.4.55-.75,1.08-1.4,2.23-1.94,3.45-.02.05-.04.11-.07.16-.94,1.91-1.88,8.5-1.88,8.5l-7.74,68.47-.02.21c-.16,1.39-.55,2.71-1.13,3.9-.69,1.42-1.65,2.68-2.81,3.71-.33.3-.68.58-1.04.83-1.26.9-2.7,1.56-4.24,1.91-1.29.3-2.66.39-4.05.23-1.39-.16-2.71-.55-3.9-1.13-1.42-.69-2.68-1.65-3.71-2.81-.3-.33-.57-.68-.83-1.04-.9-1.26-1.56-2.7-1.91-4.24-.26-1.14-.35-2.32-.26-3.54l.02-.14,5.26-46.83c0-.09,0-.18-.01-.27-.09-2.86-.61-3.86-1.41-5.21-.46-.79-2.4-2.49-4.84-2.8-.52,1.22-.98,2.38-1.29,4.03-.22,1.18-.33,2.09-.38,2.75h-.05s-5.26,47.43-5.26,47.43h0c0,.09-.12,1.69-.12,1.69,0,4.51,1.37,8.72,4.07,12.32.01-.01.02-.03.03-.04.67.88,1.41,1.71,2.22,2.47h0s0,0,0,0c1.12,1.06,2.37,1.99,3.72,2.77,1.2.69,2.48,1.27,3.84,1.7,1.26.41,2.57.69,3.93.85,1.36.15,2.71.17,4.02.05,1.41-.13,2.79-.4,4.12-.81,1.49-.46,2.91-1.09,4.24-1.87h0s0,0,0,0c1.63-.96,3.12-2.15,4.42-3.53h0s0,0,0,0c1.06-1.12,1.99-2.36,2.77-3.72.69-1.2,1.27-2.48,1.7-3.84.38-1.18.66-2.42.82-3.7h0s.03-.23.03-.23l.02-.21,7.59-68.28s.99-4.76,1.24-5.74c.18-.71.76-1.91,1.25-2.64.32-.48.67-.94,1.06-1.37.3-.33.61-.65.94-.94.26-.23.52-.45.8-.66.96-.73,2.04-1.31,3.2-1.72.13-.05.26-.09.4-.13.48-.15.96-.27,1.46-.36.69-.12,1.41-.19,2.14-.19l59.25-.03c1.4,0,2.75.24,4,.68,1.49.53,2.85,1.34,4,2.37.33.3.65.61.94.94,1.03,1.15,1.85,2.51,2.37,4,.44,1.25.68,2.6.68,4s-.24,2.75-.68,4c-.53,1.49-1.34,2.85-2.37,4-.3.33-.61.65-.94.94-1.15,1.03-2.51,1.85-4,2.37-1.25.44-2.6.68-4,.68h-2.54c4.39.58,8.48,2.15,12.17,5.53.83-.46,1.62-.97,2.37-1.53h0s0,0,0,0c1.51-1.14,2.86-2.49,4-4h0s0,0,0,0c.92-1.23,1.71-2.57,2.34-4,.55-1.27.98-2.61,1.26-4,.26-1.29.4-2.63.4-4s-.14-2.71-.4-4Z"/>
      <path class="cls-6" d="m138.4,47.99c-.28-1.39-.71-2.73-1.26-4-.62-1.43-1.41-2.77-2.34-4h0c-.64-.86-1.36-1.66-2.13-2.4.02-.01.04-.02.06-.04-3.69-3.38-7.78-4.96-12.17-5.53h-.7c-.35-.02-.71-.03-1.07-.03h-29.6s-5.54,0-5.54,0c-1.37,0-2.71.14-4,.4-1.39.28-2.73.71-4,1.26-.69.3-1.36.64-2,1.01-.69.4-1.36.84-2,1.32h0s0,0,0,0c-.55.42-1.09.86-1.6,1.33-.88.81-1.68,1.71-2.4,2.67h0s0,0,0,0c-2.95,3.45-3.94,8.11-4.05,12.01,0,0-.07,1.31.43,3.97.31,1.65.77,2.81,1.29,4.03,4.28-.5,6.28-4,6.25-8-.03-3.82,1.49-5.69,2.03-6.5.32-.48.73-1.08,1.11-1.51.3-.33.61-.65.94-.94.26-.23.52-.45.8-.66.96-.72,2.04-1.31,3.2-1.72.13-.05.27-.09.4-.13,1.14-.36,2.35-.55,3.6-.55h5.64s0,0,0,0l23.03.02h7.26c1.12.07,2.2.3,3.21.66,1.49.53,2.85,1.34,4,2.37.33.3.65.61.94.94,1.03,1.15,1.85,2.51,2.37,4,.44,1.25.68,2.6.68,4s-.24,2.75-.68,4c-.53,1.49-1.34,2.85-2.37,4-.3.33-.61.65-.94.94-1.15,1.03-3.93,2.45-4.05,2.49,2.97,1.13,5.65,2.88,7.78,4.98.17-.12,2.7-2.13,4.27-4.29.88-1.21,2.81-3.95,3.6-8.12.25-1.3.4-2.63.4-4s-.14-2.71-.4-4Z"/>
      <path class="cls-2" d="m29.44,85.41l-.43,3.8s-.1.79-.3,1.28c-.34.83-.82,1.34-1.4,1.86-.16.15-.34.29-.52.42-.63.45-1.35.78-2.12.96-.65.15-1.33.2-2.03.12-.7-.08-1.35-.27-1.95-.56-.71-.34-1.34-.82-1.86-1.4-.15-.16-.29-.34-.42-.52-.45-.63-.78-1.35-.96-2.12-.15-.65-.2-1.33-.12-2.03l4.61-42.07-1.63-2.87-4.97,44.72c-.07.69-.06,1.36.04,2.02.1.73.31,1.42.6,2.08.22.49.48.95.79,1.38.19.27.4.54.63.78.36.39.75.75,1.18,1.06.58.42,1.21.77,1.9,1.03.62.23,1.27.39,1.96.47s1.36.06,2.02-.04c.73-.1,1.42-.31,2.08-.6.49-.22.95-.48,1.38-.79.27-.19.54-.4.78-.63.39-.36.75-.75,1.06-1.18.42-.58.77-1.21,1.03-1.9.19-.5.33-1.03.41-1.58h0s0-.04,0-.04c0-.03,0-.05.01-.08h0s.56-4.94.56-4.94l-2.34,1.35Z"/>
    </g>
  </g>
</svg>