<?xml version="1.0" encoding="UTF-8"?>
<svg id="_Слой_2" data-name="Слой 2" xmlns="http://www.w3.org/2000/svg" viewBox="0 0 48 66">
  <defs>
    <style>
      .cls-1 {
        fill: #fff;
      }
    </style>
  </defs>
  <g id="icon2">
    <g id="iconAir">
      <path class="cls-1" d="m45.98,66c.92-2.78.88-5.64-.47-9.03-.84-2.11-.65-2.19-3.13-2.16-.37,0-.83.07-1.08.27-.87.7-1.47.77-2.48.19-.36-.2-.78-.43-1.17-.43-5.24-.04-10.47-.04-15.71-.03-.27,0-.6.12-.79.29-.76.67-1.4.76-2.31.24-.05-.03-.11-.06-.16-.09-2.34-1.48-4.23-6.05-3.49-8.46.44-1.44,1.46-1.75,2.89-.91.35.2.78.4,1.17.4,5.17.03,10.35.03,15.52,0,.3,0,.66-.12.87-.3.75-.63,1.39-.82,2.23-.23,1.36.96,2.76.38,4.24.54-2.4-7.53-4.5-14.96-5.16-22.58-.13-.05-.19-.09-.25-.09-4.27,0-8.54-.02-12.81-.01-.2,0-.42.06-.57.17-1.42,1.01-2.32.88-3.34-.53-1.07-1.48-1.26-3.13-1.08-4.8.15-1.44.64-2.79,1.88-3.78.83-.66,1.57-.6,2.42.02.28.21.71.34,1.07.35,2.21.03,4.43.02,6.64.02,2.02,0,4.03,0,6.1,0,.56-5.32,2.09-10.29,4.61-15.02-.24-.03-.33-.05-.43-.05C31.1,0,21,0,10.9.02c-.3,0-.73.27-.86.51-3.07,5.78-4.54,11.94-4.6,18.42-.07,6.47,1.04,12.84,2.89,19.11,2,6.79,5.33,15.16,5.8,17.38.61,2.87.85,6.73-1.64,10.55m20.22-9.48c1.43,2.08,2.35,4.22,2.18,6.35-.03.35-.16.71-.33,1.03-.57,1.02-1.48,1.25-2.52.53-.61-.42-1.16-.98-1.58-1.56-1.14-1.6-1.67-3.21-1.85-5.1,0,0,0-.01,0-.02.18-4.12,3.08-2.72,4.1-1.24Zm-2.14-31c.79-1.64,2.36-1.81,3.58-.34,1.37,1.65,1.77,3.58,2.03,5.98-.14.55-.26,1.54-.67,2.4-.51,1.08-1.53,1.21-2.59.46-1.58-1.13-2.25-2.71-2.64-4.39-.33-1.39-.35-2.79.29-4.11Zm-8.32,10.61c.02-.17.05-.33.09-.49.51-1.81,1.87-2.13,3.4-.82,1.5,1.29,2.8,4.2,2.96,6.49-.09.58-.12,1.17-.29,1.72-.38,1.29-1.45,1.63-2.7.87-.36-.22-.7-.49-.98-.8-1.82-2.06-2.74-4.37-2.48-6.98Zm11.24-31.98c1.39-1.05,2.64-.5,2.87,1.14.04.31.06.62.09.94-.09,2.24-.64,4.36-1.95,6.26-.54.78-1.21,1.61-2.39,1.42-1.23-.2-1.64-1.2-1.8-2.17-.5-3.08.61-5.64,3.18-7.58Zm-20.82.55c.15-.14.3-.28.48-.39.62-.41,1.26-.89,2.11-.56.89.35,1.03,1.13,1.06,1.86.12,2.53-.52,4.88-2,7-.53.76-1.22,1.53-2.37,1.29-1.22-.25-1.53-1.26-1.76-2.22-.08-.33-.08-.67-.12-1.07.04-2.24.87-4.24,2.61-5.91Zm-2.17,20.87c.66-1.77,2.31-1.87,3.58-.33,1.35,1.64,1.77,3.54,1.97,5.99-.11.46-.21,1.42-.58,2.28-.48,1.1-1.5,1.28-2.57.54-1.83-1.27-2.58-3.09-2.79-5.03-.12-1.14,0-2.38.39-3.45Z"/>
      <path class="cls-1" d="m4.78,17.99c-1.23.58-2.09,1.39-3.23,2.47-.34.32-.65.68-.97,1.02-.51.55-.84,1.19-.28,1.92.54.69,1.05.29,1.51-.24.93-1.06,1.92-1.89,2.96-2.52v-2.64Z"/>
      <path class="cls-1" d="m9.58,58.49c-.61-.05-4.89-.36-4.89-.36,0,0,2.5-4.15,7.29-5.83l-.63-1.75c-5.53,2.25-7.61,6.06-7.61,6.06.08-1.31.56-6.18.54-6.55-.03-.47-.52-1.04-.83-1.07-.3-.03-.88.54-.92.92-.32,3.04-.56,6.1-.79,9.16-.06.77.37,1.17.97,1.22,2.27.16,4.53.31,6.8.44.62.04,1.01-.33,1.01-1.12,0-.73-.38-1.06-.94-1.11Z"/>
      <path class="cls-1" d="m47.8,45.34c-.53-.63-1.48.56-1.48.56-2.57,2.52-4.39,5.62-10.62,5.58-5.94-.04-11.97-5.19-18.15-3.22l.52,1.84c5.69-1.69,9.91,3.24,18.23,3.27,4.14.02,7.09-1.43,11.34-6.51,0,0,.7-.89.16-1.52Z"/>
      <path class="cls-1" d="m46.87,12.87c-2.26-.19-4.53-.37-6.79-.53-.62-.04-1.01.22-1.02,1,0,.73.39.93.96.99.56.06,4.7.4,5.41.45-2.17,2.3-4.24,4.7-9.73,4.66-4.7-.03-9.45-3.24-14.29-3.62l-.43,1.91c4.4.24,8.47,3.58,15.32,3.6,3.62.01,6.32-1.09,9.79-4.76-.12,1.59-.5,5.9-.49,6.24.02.47.23.97.58,1.07.45.13.76-.28.8-.65.34-3.04.61-6.09.86-9.15.06-.77-.36-1.18-.96-1.23Z"/>
    </g>
  </g>
</svg>