<svg width="52" height="68" viewBox="0 0 52 68" fill="none" xmlns="http://www.w3.org/2000/svg">
<path d="M19.3151 49.79L9.66505 61.73C8.63505 62.93 8.80505 64.71 10.0551 65.7C11.3051 66.69 13.1451 66.53 14.1751 65.33L19.3251 58.42V49.79H19.3151Z" stroke="white" stroke-width="2" stroke-miterlimit="10"/>
<path d="M46.3945 19.5699H46.5145C48.4445 19.5699 50.0045 21.1299 50.0045 23.0599V58.6299C50.0045 60.5599 48.4445 62.1199 46.5145 62.1199H46.3945V19.5699Z" stroke="white" stroke-width="2" stroke-miterlimit="10"/>
<path d="M19.3145 66.54V7.11999C19.3145 7.11999 30.6645 6.94999 37.7845 11.82C43.2845 15.59 43.0545 19.42 43.0545 19.42L43.2845 64.86C43.2845 65.79 42.0945 66.54 40.6245 66.54H19.3245H19.3145Z" stroke="white" stroke-width="2" stroke-miterlimit="10"/>
<path d="M30.7652 47.04H37.4852C38.7052 47.04 39.6952 48.03 39.6952 49.25V66.28C39.6952 66.42 39.5852 66.54 39.4352 66.54H28.8352C28.6952 66.54 28.5752 66.43 28.5752 66.28V49.21C28.5752 48.01 29.5452 47.04 30.7452 47.04H30.7652Z" stroke="white" stroke-width="2" stroke-miterlimit="10"/>
<path d="M18.8048 7.20996C18.8048 7.20996 1.77476 15.12 1.03476 33.46C0.394759 49.48 8.80476 63.74 8.80476 63.74C8.80476 63.74 10.4948 59.97 11.7048 58.86C11.7048 58.86 6.65476 50.26 7.53476 34.45C8.28476 21.01 18.7948 15.22 18.7948 15.22L18.8048 8.5V7.20996Z" stroke="white" stroke-width="2" stroke-miterlimit="10"/>
<path d="M25.0547 7.54C23.2147 7 21.3047 6.81 19.3047 6.68V2.06C19.3047 1.47 19.7947 1 20.4047 1H23.9447C24.5547 1 25.0447 1.48 25.0447 2.06V7.54H25.0547Z" stroke="white" stroke-width="2" stroke-miterlimit="10"/>
<path d="M22.1851 67H17.3151C16.1951 62.14 16.0451 57.14 17.3151 51.94C16.1251 46.85 16.1151 41.92 17.3151 37.13C16.1151 32.24 16.1251 27.31 17.3151 22.35C16.1351 17.29 16.2351 12.5 17.4451 7.39998L19.0551 6.09998L20.8251 6.92998C21.8551 6.92998 22.1851 8.25998 22.1851 9.67998V67Z" fill="white" stroke="white" stroke-miterlimit="10"/>
<path d="M25.6945 8H23.8945V67H25.6945V8Z" fill="white" stroke="white" stroke-miterlimit="10"/>
</svg>
