<?xml version="1.0" encoding="UTF-8"?>
<svg id="_Слой_2" data-name="Слой 2" xmlns="http://www.w3.org/2000/svg" viewBox="0 0 48 66">
  <defs>
    <style>
      .cls-1 {
        fill: #fff;
      }
    </style>
  </defs>
  <g id="icon2">
    <g id="iconbackpack4">
      <g>
        <path class="cls-1" d="m33.43,56.78l-3.48-32.37c-.77-7.17-7.15-12.28-14.08-12.02l-.71.03c-6.64.25-12.24,5.42-12.77,12.09L.03,54.04c-.3,3.79,1.42,7.35,4.16,8.97l5.49-9.52c-4.26-4.03-6.64-11.68-6.16-19.09.56-8.61,4.93-15.74,10.48-16.85,6.45-1.29,13.21,5.69,14.21,17.17.78,8.88-2.06,16.39-6.5,19.76l5.93,11.44c3.77-.6,6.29-4.41,5.78-9.14Z"/>
        <path class="cls-1" d="m14.01,56.04c-1.36-.38-2.61-1.08-3.75-2.03l-5.39,9.36c.61.27,1.25.46,1.92.54l19.03,2.07c.35.04.68.04,1.01.03l-5.74-11.08c-2.11,1.37-4.54,1.84-7.09,1.12Z"/>
      </g>
      <path class="cls-1" d="m36.36,54.38l-3.7-32.96c-.79-7.06-7.11-12.25-14.18-12.25h-.74c-5.78,0-11.05,3.46-13.21,8.58,2.41-4.34,7.19-7.19,12.39-7.19h.73c6.96,0,13.17,5.1,13.95,12.05l3.64,32.44c.46,4.13-1.23,7.85-4.07,9.54,3.51-1.37,5.71-5.53,5.18-10.22Z"/>
      <path class="cls-1" d="m39.31,52.8l-3.72-33.19c-.8-7.11-7.15-12.33-14.27-12.33h-.74c-4.45,0-8.6,2.05-11.28,5.32.38-.26.75-.52,1.03-.71.32-.22.82-.47,1.31-.71,2.34-1.59,5.16-2.5,8.12-2.5h.73c7.01,0,13.26,5.14,14.05,12.14l3.66,32.66c.47,4.16-1.24,7.9-4.09,9.61,3.53-1.38,5.75-5.57,5.22-10.29Z"/>
      <path class="cls-1" d="m47.99,52.19c-.35-3.22-.7-6.43-1.1-9.64-.52-4.22-1.04-8.45-1.63-12.65-.49-3.51-1.05-7-1.65-10.47-.5-2.92-1.04-5.84-2-8.51-.18-.5-.37-.93-.76-1.11-1.12-.5-2.16-.16-3.11.77-.49.48-.93,1.07-1.39,1.66-1.19-1.77-2.79-3.25-4.63-4.34-.03-.45-.06-.91-.11-1.36-.14-1.37-.35-2.71-.79-3.97-.42-1.2-.99-2.2-1.98-2.44C28.2,0,27.55,0,26.94,0c-.43,0-.87.02-1.27.18-.65.25-1.09.89-1.46,1.64-.6,1.22-.96,2.59-1.22,4.05.07,0,.14,0,.2,0-2.47.06-4.83.73-6.89,1.9h2.63c1.21-.33,2.47-.51,3.76-.51h.73c7.01,0,13.26,5.14,14.05,12.14l3.66,32.66c.47,4.16-1.24,7.9-4.09,9.61,3.49-1.36,5.69-5.46,5.23-10.11.2.28.41.56.6.86.6.94,1.2,1.88,1.97,2.46.25.19.58.32.85.25.9-.23,1.65-.94,2.19-2.11.1-.21.14-.57.11-.83ZM25.48,4.18c.21-.74.61-1.19,1.19-1.22.48-.02.98.06,1.48.15.15.03.34.19.43.36.52,1.02.73,2.13.72,3.22v.02s.17.13.17.13c-1.41-.54-2.92-.86-4.47-.94.15-.57.31-1.15.47-1.72Zm17.25,42.11c-.41-.51-.81-1.06-1.22-1.57l-2.97-26.52c-.11-.94-.31-1.84-.6-2.71.06-.09.13-.2.23-.33.36-.49.75-.91,1.18-1.42,2.7,11.14,4.04,22.6,4.89,34.41-.56-.69-1.04-1.26-1.51-1.85Z"/>
      <path class="cls-1" d="m27.02,34.74c1.06,12.3-5.3,21.76-12.83,19.6-6.23-1.79-10.03-11.03-9.46-19.89.5-7.92,4.45-14.48,9.46-15.5,5.82-1.18,11.92,5.23,12.83,15.79Z"/>
    </g>
  </g>
</svg>