<svg width="83" height="94" viewBox="0 0 83 94" fill="none" xmlns="http://www.w3.org/2000/svg">
<g clip-path="url(#clip0_162_551)">
<path d="M3.49414 87.5185V10.9473" stroke="white" stroke-width="2" stroke-linecap="round" stroke-linejoin="round"/>
<path d="M6.49283 14.6347L3.40395 10.2188L0.5 14.5648" stroke="white" stroke-width="2" stroke-linecap="round" stroke-linejoin="round"/>
<path d="M0.5 84.0406L3.58389 88.4515L6.49283 84.1055" stroke="white" stroke-width="2" stroke-linecap="round" stroke-linejoin="round"/>
<path d="M71.8389 87.6182L80.6757 73.5424" stroke="white" stroke-width="2" stroke-linecap="round" stroke-linejoin="round"/>
<path d="M82.5002 77.1699L80.9207 73.1582L76.6123 73.8717" stroke="white" stroke-width="2" stroke-linecap="round" stroke-linejoin="round"/>
<path d="M75.7478 87.1991L71.3893 88.4515L69.9648 84.5695" stroke="white" stroke-width="2" stroke-linecap="round" stroke-linejoin="round"/>
<path d="M68.6658 90.5073H5.85352" stroke="white" stroke-width="2" stroke-linecap="round" stroke-linejoin="round"/>
<path d="M8.98204 87.5185L5.2334 90.6021L8.92207 93.5011" stroke="white" stroke-width="2" stroke-linecap="round" stroke-linejoin="round"/>
<path d="M65.8467 87.5185L69.5953 90.6021L65.9067 93.5011" stroke="white" stroke-width="2" stroke-linecap="round" stroke-linejoin="round"/>
<path d="M63.6671 45.3959C63.6022 44.9318 63.5222 44.4678 63.4822 44.0037C63.1473 40.3064 62.8224 36.6091 62.5026 32.9068C62.4826 32.6523 62.5175 32.3679 62.6025 32.1284C63.5122 29.419 64.3869 26.6947 65.3815 24.0202C65.9413 22.5183 66.6661 21.0863 67.3858 19.6642C67.6157 19.2052 68.0455 18.8559 68.4204 18.5017C68.7003 18.2372 68.9952 18.357 69.0752 18.7511C69.1402 19.0755 69.1451 19.4197 69.1451 19.7541C69.1302 21.8647 68.9402 23.9703 68.4704 26.031C67.4808 30.362 66.4611 34.6881 65.4065 39.0091C64.9917 40.7206 64.4468 42.4021 63.982 44.1035C63.8671 44.5177 63.8371 44.9568 63.7621 45.3859C63.7271 45.3859 63.6971 45.3909 63.6621 45.3959H63.6671Z" fill="white"/>
<path d="M61.9481 29.2344C61.8581 28.4909 61.7782 27.7425 61.6682 26.999C61.2134 23.8954 60.9235 20.742 59.2541 18.0625C59.1091 17.5436 60.7635 15.418 61.1284 14.949C61.5832 14.3602 62.193 14.1357 62.8378 14.2155C64.8371 14.465 66.6514 15.2085 68.1609 16.7103C68.2258 16.7752 68.3008 16.8451 68.3458 16.9349C68.4058 17.0546 68.4458 17.1894 68.4907 17.3191C68.3758 17.359 68.2508 17.3889 68.1409 17.4438C67.786 17.6284 67.3961 17.7682 67.0863 18.0226C66.1316 18.801 65.5668 19.9287 65.047 21.0713C63.8824 23.631 62.9228 26.2855 62.123 29.0098C62.0981 29.0897 62.0631 29.1645 62.0331 29.2443C62.0031 29.2443 61.9781 29.2443 61.9481 29.2394V29.2344Z" fill="white"/>
<path d="M29.2197 8.82672C29.9145 3.88198 33.0683 0.598787 37.6767 0.109801C39.7859 -0.114733 41.8752 0.00501858 43.9494 0.484025C47.0233 1.19256 48.9776 3.39798 50.1872 6.4267C50.517 7.25498 50.7419 8.13316 51.0768 9.18098C50.1822 8.95645 49.5174 8.75686 48.8426 8.62713C47.863 8.44252 46.8733 8.28285 45.8737 8.16808C45.4189 8.1132 45.109 8.00842 44.969 7.43461C44.7791 6.66121 44.3343 6.18719 43.5446 6.0874C41.1004 5.77305 38.6563 5.64831 36.2572 6.24208C35.8823 6.33688 35.4925 6.7161 35.2925 7.09032C35.0076 7.61423 34.6678 7.79885 34.138 7.88367C32.6985 8.11819 31.279 8.4475 29.8595 8.73191C29.6596 8.77183 29.4546 8.79678 29.2197 8.8367V8.82672Z" fill="white"/>
<path d="M14.9702 45.3959C15.0352 44.9318 15.1152 44.4678 15.1551 44.0037C15.49 40.3064 15.8149 36.6091 16.1348 32.9068C16.1548 32.6523 16.1198 32.3679 16.0348 32.1284C15.1252 29.419 14.2505 26.6947 13.2558 24.0202C12.696 22.5183 11.9713 21.0863 11.2516 19.6642C11.0216 19.2052 10.5918 18.8559 10.2169 18.5017C9.93703 18.2372 9.64213 18.357 9.56216 18.7511C9.49719 19.0755 9.49219 19.4197 9.49219 19.7541C9.50718 21.8647 9.69711 23.9703 10.1669 26.031C11.1566 30.362 12.1762 34.6881 13.2308 39.0091C13.6457 40.7206 14.1905 42.4021 14.6553 44.1035C14.7703 44.5177 14.8003 44.9568 14.8752 45.3859C14.9102 45.3859 14.9402 45.3909 14.9752 45.3959H14.9702Z" fill="white"/>
<path d="M16.6891 29.2344C16.7791 28.4909 16.8591 27.7425 16.969 26.999C17.4239 23.8954 17.7137 20.742 19.3831 18.0625C19.5281 17.5436 17.8737 15.418 17.5088 14.949C17.054 14.3602 16.4442 14.1357 15.7994 14.2155C13.8002 14.465 11.9858 15.2085 10.4764 16.7103C10.4114 16.7752 10.3364 16.8451 10.2914 16.9349C10.2315 17.0546 10.1915 17.1894 10.1465 17.3191C10.2614 17.359 10.3864 17.3889 10.4964 17.4438C10.8512 17.6284 11.2411 17.7682 11.551 18.0226C12.5056 18.801 13.0704 19.9287 13.5902 21.0713C14.7548 23.631 15.7145 26.2855 16.5142 29.0098C16.5392 29.0897 16.5742 29.1645 16.6042 29.2443C16.6341 29.2443 16.6591 29.2443 16.6891 29.2394V29.2344Z" fill="white"/>
<path d="M54.486 39.2785C55.9105 56.3781 47.3436 69.5258 37.2122 66.522C28.8303 64.0372 23.7121 51.1938 24.4718 38.8744C25.1516 27.8672 30.4647 18.7561 37.2122 17.339C45.0444 15.6925 53.2614 24.604 54.486 39.2785Z" fill="white"/>
<path d="M48.9026 64.7157C45.5988 68.1287 41.4353 69.6156 36.9919 68.3233C34.7478 67.6696 32.7185 66.3573 30.9441 64.5511L22.4922 79.4651C23.1919 79.6098 23.9167 79.6947 24.6714 79.6947H54.3807C55.3603 79.6947 56.295 79.555 57.1797 79.3205L48.9026 64.7207V64.7157Z" fill="white"/>
<path d="M65.2618 66.043L60.0487 23.9553C58.9291 14.939 50.0223 8.31775 40.0409 8.31775H39.0013C29.0249 8.31775 20.1131 14.939 18.9935 23.9553L13.7804 66.043C13.0357 72.0705 16.1896 77.4144 21.1977 79.1209L30.0246 63.5532C25.1013 57.7851 22.4173 48.0753 23.0121 38.6448C23.7568 26.8244 29.5897 17.0397 36.992 15.5178C45.5889 13.7515 54.6007 23.3166 55.9452 39.0789C56.8249 49.4125 54.2358 58.3989 49.8174 63.7128L58.4293 78.9013C63.0976 76.9903 65.9866 71.836 65.2668 66.048L65.2618 66.043Z" fill="white"/>
</g>
<defs>
<clipPath id="clip0_162_551">
<rect width="83" height="94" fill="white"/>
</clipPath>
</defs>
</svg>
