<?xml version="1.0" encoding="UTF-8"?>
<svg id="_Слой_2" data-name="Слой 2" xmlns="http://www.w3.org/2000/svg" viewBox="0 0 48 66">
  <defs>
    <style>
      .cls-1 {
        fill: #fff;
      }
    </style>
  </defs>
  <g id="icon2">
    <g id="iconBottle">
      <path class="cls-1" d="m0,20.74h4.17v.6c0,11.67,0,23.34,0,35.01,0,3.11,2.65,5.73,6.14,6.04.76.07,1.53.11,2.29.11,7.62,0,15.23,0,22.85,0,1.45,0,2.89-.03,4.23-.59,2.64-1.11,4.12-2.96,4.13-5.57.03-11.67.01-23.34.01-35.01v-.59h4.17v.61c0,11.82,0,23.65,0,35.47,0,2.03-.77,3.79-2.17,5.37-1.93,2.17-4.48,3.36-7.52,3.75-.61.08-1.25.04-1.87.04-8.54,0-17.08,0-25.61,0-4.98,0-9.5-3.14-10.64-7.42-.11-.42-.17-.85-.17-1.28C0,45.27,0,33.25,0,21.23c0-.15,0-.3,0-.49Z"/>
      <path class="cls-1" d="m17.65,3.47h4.45V0h3.76v3.47c.47,0,.88,0,1.29,0,1.91,0,3.83.06,5.74-.02,2.01-.09,4.88,1.48,5.39,4.12.38,2-.35,3.63-2.05,4.95-.09.07-.19.13-.33.21.67.67,1.24,1.34,1.93,1.89,1.09.88,1.59,1.88,1.42,3.21-.13.97-.02,1.97-.02,2.98H8.8c-.01-.11-.03-.25-.03-.38,0-1.33-.01-2.65,0-3.98,0-.19.08-.43.23-.58,1.75-1.79,3.53-3.57,5.28-5.36.28-.28.58-.41,1-.39.62.03,1.25,0,1.88.04.4.02.51-.1.51-.44-.01-2.06,0-4.13,0-6.27Zm12.68,3.3c0,1.11,0,2.14.01,3.16,0,.09.21.24.32.24.69,0,1.39.01,2.07-.04.92-.08,1.59-.71,1.66-1.52.07-.74-.5-1.53-1.39-1.67-.86-.14-1.74-.12-2.69-.17Z"/>
      <path class="cls-1" d="m8.77,31.45h30.44v4.32c-4.12,1.22-8.26,2.35-12.31,3.69-2.03.67-3.82.64-5.84-.02-3.91-1.29-7.91-2.37-11.87-3.55-.16-.05-.4-.21-.4-.32-.03-1.37-.02-2.73-.02-4.12Z"/>
      <path class="cls-1" d="m8.78,28.06v-3.85h30.41v3.85H8.78Z"/>
      <path class="cls-1" d="m31.46,44.97c-.34.12-.59.21-.84.29-1.99.59-3.97,1.19-5.97,1.75-.33.09-.74.15-1.06.06-2.17-.6-4.32-1.25-6.47-1.89-.16-.05-.31-.12-.56-.22.2-.07.31-.12.42-.16,2.2-.65,4.4-1.31,6.61-1.94.23-.07.53-.09.75-.02,2.24.64,4.48,1.3,6.71,1.96.11.03.21.09.41.17Z"/>
      <path class="cls-1" d="m31.42,51.9c-.28.09-.47.16-.66.22-2.17.65-4.34,1.3-6.51,1.93-.14.04-.31.05-.45.01-2.26-.66-4.51-1.32-6.76-1.99-.13-.04-.24-.1-.47-.2.3-.1.49-.18.69-.23,2.09-.62,4.18-1.24,6.27-1.84.26-.07.59-.09.85-.02,2.21.63,4.42,1.28,6.62,1.93.11.03.21.09.41.19Z"/>
      <path class="cls-1" d="m19.62,41.56c-.18.07-.36.14-.54.2-2.14.64-4.27,1.27-6.41,1.89-.17.05-.39.08-.55.03-.99-.28-1.97-.58-2.95-.9-.16-.05-.38-.23-.38-.36-.03-1.38-.02-2.77-.02-4.22,3.66,1.09,7.26,2.16,10.85,3.23,0,.04,0,.08,0,.12Z"/>
      <path class="cls-1" d="m28.24,41.49c3.74-1.12,7.34-2.19,10.99-3.28,0,1.45,0,2.85-.01,4.24,0,.11-.17.26-.3.31-1.01.32-2.03.63-3.05.93-.14.04-.31.02-.46-.02-2.25-.66-4.5-1.33-6.75-2-.1-.03-.18-.07-.43-.17Z"/>
      <path class="cls-1" d="m39.23,57.82c-1.43.04-2.76.07-4.08-.36-2-.65-4.04-1.21-6.06-1.82-.25-.08-.5-.18-.87-.31,2.25-.67,4.37-1.26,6.45-1.93.72-.23,1.35-.23,2.04.01.72.26,1.47.46,2.2.7.13.04.31.18.31.28.02,1.12.01,2.25.01,3.42Z"/>
      <path class="cls-1" d="m19.72,55.4c-.99.29-1.86.54-2.72.8-1.51.45-3.03.88-4.53,1.37-1.2.39-2.42.25-3.71.27,0-1.18,0-2.32.01-3.45,0-.09.16-.23.28-.26,1.01-.33,2.03-.64,3.04-.94.13-.04.31-.01.45.03,2.29.67,4.57,1.35,6.86,2.03.06.02.11.06.31.16Z"/>
      <path class="cls-1" d="m28.34,48.37c2.43-.72,4.7-1.39,6.99-2.05.23-.07.52-.06.76,0,.94.26,1.88.53,2.8.84.15.05.32.27.33.42.04.57.04,1.14,0,1.71-.01.15-.19.36-.34.41-.96.31-1.93.58-2.91.86-.17.05-.38.08-.55.03-2.14-.62-4.27-1.26-6.4-1.9-.2-.06-.38-.17-.68-.31Z"/>
      <path class="cls-1" d="m19.58,48.44c-.31.11-.62.24-.94.34-1.99.59-3.98,1.18-5.97,1.75-.24.07-.55.05-.79-.01-.89-.24-1.77-.54-2.66-.79-.31-.09-.46-.21-.45-.52.02-.54.02-1.08,0-1.62-.01-.26.09-.39.37-.47.89-.25,1.77-.53,2.67-.76.31-.08.69-.1,1,0,1.98.56,3.95,1.15,5.93,1.73.27.08.55.15.83.22,0,.04.02.09.02.13Z"/>
      <path class="cls-1" d="m27.78,57.8h-7.54s-.02-.06-.03-.09c1.22-.35,2.44-.71,3.67-1.06.08-.02.18-.02.26,0,1.23.34,2.45.69,3.67,1.04,0,.04-.02.08-.03.12Z"/>
    </g>
  </g>
</svg>