<?xml version="1.0" encoding="UTF-8"?>
<svg id="_Слой_2" data-name="Слой 2" xmlns="http://www.w3.org/2000/svg" viewBox="0 0 119.34 159.72">
  <defs>
    <style>
      .cls-1 {
        fill: #fff;
      }
    </style>
  </defs>
  <g id="icon2">
    <g>
      <g>
        <path class="cls-1" d="m108.39,90.98c-.13-.93-.29-1.86-.37-2.79-.67-7.41-1.32-14.82-1.96-22.24-.04-.51.03-1.08.2-1.56,1.82-5.43,3.57-10.89,5.56-16.25,1.12-3.01,2.57-5.88,4.01-8.73.46-.92,1.32-1.62,2.07-2.33.56-.53,1.15-.29,1.31.5.13.65.14,1.34.14,2.01-.03,4.23-.41,8.45-1.35,12.58-1.98,8.68-4.02,17.35-6.13,26.01-.83,3.43-1.92,6.8-2.85,10.21-.23.83-.29,1.71-.44,2.57-.07,0-.13.01-.2.02Z"/>
        <path class="cls-1" d="m104.95,58.59c-.18-1.49-.34-2.99-.56-4.48-.91-6.22-1.49-12.54-4.83-17.91-.29-1.04,3.02-5.3,3.75-6.24.91-1.18,2.13-1.63,3.42-1.47,4,.5,7.63,1.99,10.65,5,.13.13.28.27.37.45.12.24.2.51.29.77-.23.08-.48.14-.7.25-.71.37-1.49.65-2.11,1.16-1.91,1.56-3.04,3.82-4.08,6.11-2.33,5.13-4.25,10.45-5.85,15.91-.05.16-.12.31-.18.47-.06,0-.11,0-.17-.01Z"/>
      </g>
      <path class="cls-1" d="m39.46,17.69C40.85,7.78,47.17,1.2,56.39.22c4.22-.45,8.4-.21,12.55.75,6.15,1.42,10.06,5.84,12.48,11.91.66,1.66,1.11,3.42,1.78,5.52-1.79-.45-3.12-.85-4.47-1.11-1.96-.37-3.94-.69-5.94-.92-.91-.11-1.53-.32-1.81-1.47-.38-1.55-1.27-2.5-2.85-2.7-4.89-.63-9.78-.88-14.58.31-.75.19-1.53.95-1.93,1.7-.57,1.05-1.25,1.42-2.31,1.59-2.88.47-5.72,1.13-8.56,1.7-.4.08-.81.13-1.28.21Z"/>
      <g>
        <path class="cls-1" d="m10.96,90.98c.13-.93.29-1.86.37-2.79.67-7.41,1.32-14.82,1.96-22.24.04-.51-.03-1.08-.2-1.56-1.82-5.43-3.57-10.89-5.56-16.25-1.12-3.01-2.57-5.88-4.01-8.73-.46-.92-1.32-1.62-2.07-2.33-.56-.53-1.15-.29-1.31.5C0,38.23,0,38.92,0,39.59c.03,4.23.41,8.45,1.35,12.58,1.98,8.68,4.02,17.35,6.13,26.01.83,3.43,1.92,6.8,2.85,10.21.23.83.29,1.71.44,2.57.07,0,.13.01.2.02Z"/>
        <path class="cls-1" d="m14.4,58.59c.18-1.49.34-2.99.56-4.48.91-6.22,1.49-12.54,4.83-17.91.29-1.04-3.02-5.3-3.75-6.24-.91-1.18-2.13-1.63-3.42-1.47-4,.5-7.63,1.99-10.65,5-.13.13-.28.27-.37.45-.12.24-.2.51-.29.77.23.08.48.14.7.25.71.37,1.49.65,2.11,1.16,1.91,1.56,3.04,3.82,4.08,6.11,2.33,5.13,4.25,10.45,5.85,15.91.05.16.12.31.18.47.06,0,.11,0,.17-.01Z"/>
      </g>
      <path class="cls-1" d="m90.02,78.72c2.85,34.27-14.29,60.62-34.56,54.6-16.77-4.98-27.01-30.72-25.49-55.41,1.36-22.06,11.99-40.32,25.49-43.16,15.67-3.3,32.11,14.56,34.56,43.97Z"/>
      <g>
        <path class="cls-1" d="m78.84,129.7c-6.61,6.84-14.94,9.82-23.83,7.23-4.49-1.31-8.55-3.94-12.1-7.56l-16.91,29.89c1.4.29,2.85.46,4.36.46h59.44c1.96,0,3.83-.28,5.6-.75l-16.56-29.26Z"/>
        <path class="cls-1" d="m111.58,132.36l-10.43-84.35c-2.24-18.07-20.06-31.34-40.03-31.34h-2.08c-19.96,0-37.79,13.27-40.03,31.34l-10.43,84.35c-1.49,12.08,4.82,22.79,14.84,26.21l17.66-31.2c-9.85-11.56-15.22-31.02-14.03-49.92,1.49-23.69,13.16-43.3,27.97-46.35,17.2-3.54,35.23,15.63,37.92,47.22,1.76,20.71-3.42,38.72-12.26,49.37l17.23,30.44c9.34-3.83,15.12-14.16,13.68-25.76Z"/>
      </g>
    </g>
  </g>
</svg>