<?xml version="1.0" encoding="UTF-8"?>
<svg id="_Слой_2" data-name="Слой 2" xmlns="http://www.w3.org/2000/svg" viewBox="0 0 66 30">
  <defs>
    <style>
      .cls-1 {
        fill: #fff;
      }

      .cls-2 {
        fill: #eceeee;
      }
    </style>
  </defs>
  <g id="icon2">
    <g id="iconHendle">
      <path class="cls-2" d="m56.01,24.6v4.24c0,.64.42,1.17.95,1.17h6.24c.39,0,.76-.26.96-.68l1.72-3.61c.37-.77-.08-1.75-.81-1.75h-5.19c-.54,0-.97-.56-.94-1.23l.08-1.91c0-.23-.24-.33-.33-.13-.47,1.01-1.12,2.58-2.05,3.17-.27.17-.61.19-.61.73Z"/>
      <path class="cls-2" d="m9.99,24.45v4.24c0,.64-.42,1.17-.95,1.17H2.81c-.39,0-.76-.26-.96-.68l-1.72-3.61c-.37-.77.08-1.75.81-1.75h5.19c.54,0,.97-.56.94-1.23l-.08-1.91c0-.23.24-.33.33-.13.47,1.01,1.12,2.58,2.05,3.17.27.17.61.19.61.73Z"/>
      <path class="cls-1" d="m53.95,7.8c-.64-.5-1.48-.13-1.73.75l-.7,2.46c-.33,1.29-1.34,1.97-2.27,1.51l-.91-.45c-.93-.46-1.41-1.87-1.08-3.16l.95-3.75c.17-.69-.08-1.44-.61-1.74-1.26-.72-2.83-1.42-4.77-2-.67-.2-1.34.35-1.45,1.19l-.38,3.01c-.17,1.35-1.09,2.25-2.06,2.02l-.95-.23c-.97-.24-1.61-1.52-1.45-2.87l.24-2.79c.07-.82-.43-1.54-1.1-1.6-1.48-.13-2.91-.17-4.41-.12-.68.03-1.21.74-1.15,1.57l.21,3.14c.13,1.36-.56,2.6-1.53,2.78l-.95.17c-.97.18-1.87-.78-1.99-2.14l-.36-3.3c-.09-.81-.71-1.39-1.37-1.24-1.78.41-3.45.94-5,1.61-.59.25-.9,1.06-.71,1.79l.89,3.51c.33,1.29-.16,2.71-1.08,3.16l-.91.45c-.93.46-1.94-.22-2.27-1.51l-.77-2.71c-.24-.86-1.07-1.24-1.71-.77-6.46,4.72-5.82,6.96-3.36,12.37.65,1.43,1.21,3.48,6.3-.21,9.11-6.61,23.13-8.74,33.82-.25,6.14,4.88,6.41,2.99,7.35,1.12,3.04-6.03,2.79-7.49-2.71-11.76Z"/>
    </g>
  </g>
</svg>