<?xml version="1.0" encoding="UTF-8"?>
<svg id="_Слой_2" data-name="Слой 2" xmlns="http://www.w3.org/2000/svg" viewBox="0 0 66 56">
  <defs>
    <style>
      .cls-1 {
        fill: #fff;
      }
    </style>
  </defs>
  <g id="icon2">
    <g>
      <path class="cls-1" d="m0,38.57c.04.11.08.21.09.24.49-1.77,1-3.59,1.51-5.41.75-2.69,1.51-5.38,2.26-8.07.33-1.18.66-2.36.98-3.54.17-.62.49-1.14,1.17-1.41.74-.29,1.45-.22,2.1.22.66.44.91,1.06.75,1.77-.27,1.15-.58,2.3-.9,3.44-.54,1.94-1.11,3.88-1.66,5.82-.67,2.36-1.31,4.73-2,7.08-.22.75-.19,1.46.13,2.15.24.52.77.76,1.35.91,1,.25,2.01.48,3.01.72,2.73.66,5.46,1.33,8.2,1.99,4.39,1.06,8.78,2.11,13.17,3.17,2.35.57,4.7,1.14,7.05,1.71.17.04.35.06.53.14-.09.04-.17.08-.33.15.15.05.25.08.35.11,3.33.8,6.67,1.6,10,2.41,1.21.29,2.05.11,2.62-.69.23-.32.37-.72.47-1.1.43-1.61.81-3.23,1.24-4.83.25-.93.99-1.51,1.92-1.55,1.42-.06,2.45,1.1,2.1,2.37-.29,1.05-.58,2.1-.87,3.15-.28,1-.46,2.04-.85,3-.79,1.91-2.42,2.97-4.59,3.4-1.11.22-2.19.02-3.27-.24-4.21-1.03-8.42-2.04-12.64-3.06-3.8-.92-7.6-1.84-11.4-2.75-.3-.07-.59-.14-.89-.26.14,0,.27-.02.41-.03,0-.02.02-.03.03-.05-.07-.03-.14-.08-.21-.1-5.63-1.35-11.27-2.7-16.91-4.02-2.18-.51-3.64-1.7-4.48-3.55-.17-.38-.28-.77-.19-1.19.03-.14,0-.29,0-.51-.1.32-.17.58-.25.83,0-.8,0-1.59,0-2.39Z"/>
      <path class="cls-1" d="m60.11,40.7c.25.02.5.04.74.06,0,.02,0,.04,0,.06-.38.04-.76.08-1.15.11-.2.02-.41.01-.61.01-13.5,0-27,0-40.5,0-.75,0-1.5-.07-2.25-.11-.09,0-.18-.04-.27-.08.45-.02.91-.04,1.36-.06v-.05c-.42-.03-.83-.05-1.25-.1-1.68-.21-2.95-1.01-3.99-2.19-.79-.9-1.28-1.85-1.18-3.04.05-.59-.04-1.18-.04-1.77,0-8.66,0-17.31,0-25.97,0-.86,0-1.73.07-2.59.15-1.73,1.13-3.03,2.69-4C14.93.25,16.23,0,17.64,0c5.61.01,11.21,0,16.82,0,8.34,0,16.69,0,25.03,0,1.45,0,2.82.27,3.98,1.11,1.63,1.18,2.52,2.7,2.52,4.6,0,9.77.03,19.54-.01,29.32-.01,2.66-1.88,5-5.14,5.51-.24.04-.48.05-.72.07,0,.03,0,.07,0,.1Zm1.68-14.76s.05-.02.07-.03c0-.11,0-.23,0-.34,0-4.89,0-9.77,0-14.66,0-1.74,0-3.47,0-5.21,0-.29-.03-.61-.17-.88-.38-.75-1.08-1.1-1.99-1.1-14.17,0-28.33,0-42.5,0-.06,0-.13,0-.19,0-.99.03-1.84.78-1.87,1.68-.01.41-.03.81-.03,1.22,0,5.56,0,11.13,0,16.69,0,2.72-.02,5.45-.04,8.17,0,.04.01.09.03.2,3.2-2.89,6.35-5.75,9.5-8.6-.03-.02-.06-.03-.09-.05.03-.06.04-.15.09-.19,1.65-1.1,3.68-1.17,5.42-.18.18.1.5.13.41.45,0,.03.07.09.12.13,1.07.94,2.13,1.88,3.2,2.82.15.13.3.26.45.39.99-1.05,1.96-2.07,2.9-3.1.16-.17.2-.44.36-.61,1.71-1.88,3.42-3.76,5.15-5.62.94-1.01,1.8-2.1,3.01-2.89-.14-.09-.17-.17.03-.25.24-.09.46-.2.7-.28,1.44-.49,2.85-.48,4.2.26.04.02.12.06.12.09-.03.33.31.41.5.59.89.9,1.8,1.77,2.67,2.68,1.74,1.82,3.46,3.65,5.19,5.48.05.05.06.12.09.18.06.12.09.26.18.35.63.68,1.26,1.34,1.9,2.01.19.2.37.39.56.59Zm-46.06,10.59c.4.14.71.3,1.03.34.5.06,1.01.05,1.51.05,13.71,0,27.43,0,41.14,0,.18,0,.37,0,.55-.02,1.12-.11,1.89-.87,1.9-1.89.01-1.06,0-2.11,0-3.17,0-.1-.04-.21-.1-.29-.41-.45-.83-.89-1.25-1.33-1.84-1.94-3.7-3.88-5.53-5.83-.47-.5-1.09-.92-1.29-1.59-1.57-1.65-3.13-3.3-4.7-4.94-.7-.73-1.03-.72-1.7.02-.8.88-1.63,1.75-2.41,2.65-.77.89-1.64,1.7-2.33,2.67-.91,1.27-2.1,2.37-3.18,3.54-1.09,1.19-2.19,2.36-3.28,3.55-.3.33-.65.6-1.11.72-.94.25-1.65-.07-2.3-.68-1.4-1.3-2.82-2.58-4.24-3.87-.17-.16-.36-.3-.55-.45-.25-.19-.5-.21-.75,0-.21.17-.41.34-.61.52-1.82,1.65-3.64,3.29-5.46,4.94-.16.14-.46.21-.34.51,0,.02-.06.08-.09.11-1.5,1.36-3.01,2.71-4.52,4.07-.1.09-.2.19-.39.37Z"/>
      <path class="cls-1" d="m25.04,17.84c-2.98.11-5.24-1.87-5.6-3.94-.19-1.07-.23-2.09.21-3.11.88-2.01,3.21-3.26,5.59-3.07,2.65.21,4.41,2.04,4.88,3.97.18.75.06,1.5-.08,2.25-.38,2.03-2.23,3.47-4.24,3.81-.29.05-.6.07-.75.09Zm-.3-6.44c-.79.01-1.39.54-1.37,1.22.01.76.6,1.28,1.43,1.27.78,0,1.37-.58,1.35-1.28-.03-.69-.64-1.22-1.4-1.21Z"/>
    </g>
  </g>
</svg>