<?xml version="1.0" encoding="UTF-8"?>
<svg id="_Слой_2" data-name="Слой 2" xmlns="http://www.w3.org/2000/svg" viewBox="0 0 48 65.34">
  <defs>
    <style>
      .cls-1 {
        fill: #fff;
      }
    </style>
  </defs>
  <g id="icon2">
    <g>
      <path class="cls-1" d="m41.74,16.35c-.62-7.35-5.95-13.76-13.1-15.68-1.15-.31-2.35-.45-3.52-.67h-2.62c-.77.12-1.55.21-2.31.37C10.58,2.37,4.35,11.6,6.11,21.23c1.76,9.65,11.08,16.17,20.7,14.51,9.33-1.62,15.73-9.93,14.94-19.39Zm-27.86,12.5c-6.04-5.39-6.19-14.41-1.6-19.99,2.2,2.19,4.37,4.36,6.58,6.57-.36.67-.75,1.36-1.1,2.07-1.98,3.95.21,8.68,4.52,9.69,2.25.53,4.29-.01,6.04-1.53.14-.12.27-.24.35-.32,1.41,1.41,2.81,2.8,4.2,4.19-4.82,4.17-13.1,4.59-18.99-.67Zm6.66-9.43c.95-2.1,2.12-4.1,3.24-6.23.12.18.18.27.23.35.95,1.75,1.92,3.5,2.84,5.26,1,1.9.28,4.16-1.59,4.98-1.38.6-2.69.42-3.79-.6-1.11-1.03-1.55-2.38-.93-3.76Zm14.79,7.71c-.12-.11-.24-.21-.35-.32-1.42-1.41-2.83-2.83-4.25-4.23-.23-.22-.33-.42-.26-.75.33-1.65.03-3.21-.77-4.68-1.31-2.41-2.62-4.81-3.91-7.23-.43-.8-1.03-1.31-1.97-1.31-.94,0-1.55.52-1.96,1.32-.41.8-.86,1.59-1.3,2.4-1.99-1.98-3.92-3.91-5.85-5.83,4.55-3.98,12.98-4.79,18.8.38,5.9,5.24,6.81,14.18,1.83,20.25Z"/>
      <path class="cls-1" d="m47.98,49.17c-.02-2.05-1.3-3.52-2.69-3.21-.99.22-1.88.8-2.69,1.65-.4.43-.8.88-1.22,1.27-1.51,1.43-3.33,1.37-4.79-.16-.42-.44-.82-.91-1.26-1.31-2.28-2.07-4.65-2.21-7.04-.47-.66.48-1.25,1.2-1.86,1.83-1.5,1.53-3.37,1.53-4.86-.02-.27-.28-.53-.56-.8-.85-2.74-2.89-5.88-2.88-8.61.02-.27.28-.53.56-.79.85-1.04,1.13-2.2,1.3-3.43.96-.91-.25-1.58-1.15-2.3-1.91-.89-.93-1.84-1.64-2.93-1.88-1.07-.24-2.08.58-2.51,2.03-.06.2-.13.4-.19.61v9.87c.35,1.76,1.15,2.67,2.39,2.91.39.07.77.38,1.12.67.44.38.86.83,1.27,1.28,1.74,1.9,3.68,2.36,5.77,1.74,1.33-.39,2.38-1.55,3.44-2.68,1.51-1.6,3.41-1.6,4.94-.03.38.4.76.81,1.14,1.2,1.82,1.82,3.8,2.16,5.91,1.37,1.18-.44,2.12-1.51,3.07-2.55.96-1.05,2.03-1.32,3.19-1.1,1,.19,1.75,1.05,2.5,1.89,1.33,1.47,2.82,2.2,4.49,2.15,1.59-.05,2.99-.83,4.23-2.26.82-.94,1.69-1.66,2.75-1.91,1-.23,1.75-1.65,1.76-3.15.02-2.95.03-5.9,0-8.84Zm-2.8,6.12v.82c0,1.11-.03,1.01-.71,1.46-.81.52-1.58,1.16-2.32,1.86-.76.72-1.48,1.52-2.42,1.71-1.09.21-2.11-.02-3.03-.98-.42-.44-.83-.89-1.26-1.31-2.36-2.34-5.44-2.35-7.8-.03-.41.41-.81.86-1.22,1.28-1.49,1.53-3.38,1.51-4.86-.01-.61-.63-1.2-1.35-1.86-1.83-2.43-1.74-4.82-1.59-7.12.57-.42.39-.8.87-1.22,1.27-1.53,1.5-3.09,1.5-4.67.16-.38-.32-.72-.72-1.07-1.11-.76-.83-1.58-1.45-2.51-1.79-.12-.04-.28-.34-.29-.53-.02-2.17-.01-4.34-.01-6.76.67.66,1.23,1.18,1.76,1.75.92.98,1.9,1.76,3.04,2.03,1.91.45,3.7.03,5.31-1.64.32-.33.65-.64.95-1.01,1.39-1.71,3.75-1.73,5.22,0,.94,1.11,1.93,2.11,3.14,2.5,1.99.65,3.88.34,5.61-1.35.39-.38.76-.79,1.14-1.19,1.63-1.71,3.46-1.72,5.09-.01.91.96,1.8,1.99,2.91,2.43,2.13.84,4.14.54,6-1.3.43-.42.83-.89,1.26-1.31.28-.27.59-.49.95-.79v5.11Z"/>
    </g>
  </g>
</svg>